<?xml version="1.0" encoding="UTF-8" standalone="no"?>
<!-- Created with Inkscape (http://www.inkscape.org/) -->

<svg
   width="230mm"
   height="230mm"
   viewBox="0 0 230 230"
   version="1.1"
   id="svg5"
   xml:space="preserve"
   inkscape:version="1.4 (e7c3feb100, 2024-10-09)"
   sodipodi:docname="favicon.svg"
   inkscape:export-filename="favicon.png"
   inkscape:export-xdpi="55.217392"
   inkscape:export-ydpi="55.217392"
   xmlns:inkscape="http://www.inkscape.org/namespaces/inkscape"
   xmlns:sodipodi="http://sodipodi.sourceforge.net/DTD/sodipodi-0.dtd"
   xmlns="http://www.w3.org/2000/svg"
   xmlns:svg="http://www.w3.org/2000/svg"><sodipodi:namedview
     id="namedview7"
     pagecolor="#ffffff"
     bordercolor="#000000"
     borderopacity="0.25"
     inkscape:showpageshadow="2"
     inkscape:pageopacity="0.0"
     inkscape:pagecheckerboard="0"
     inkscape:deskcolor="#d1d1d1"
     inkscape:document-units="mm"
     showgrid="false"
     showguides="false"
     inkscape:zoom="0.037107047"
     inkscape:cx="-2048.1285"
     inkscape:cy="2883.5493"
     inkscape:window-width="1920"
     inkscape:window-height="1002"
     inkscape:window-x="0"
     inkscape:window-y="26"
     inkscape:window-maximized="1"
     inkscape:current-layer="layer1"><sodipodi:guide
       position="59.092434,245.0297"
       orientation="0,-1"
       id="guide4839"
       inkscape:locked="false" /><sodipodi:guide
       position="90.530433,263.37798"
       orientation="0,-1"
       id="guide4841"
       inkscape:locked="false" /><sodipodi:guide
       position="93.523953,237.662"
       orientation="1,0"
       id="guide19473"
       inkscape:locked="false" /></sodipodi:namedview><defs
     id="defs2"><inkscape:path-effect
       effect="bspline"
       id="path-effect4849"
       is_visible="true"
       lpeversion="1"
       weight="33.333333"
       steps="2"
       helper_size="0"
       apply_no_weight="true"
       apply_with_weight="true"
       only_selected="false"
       uniform="false" /><inkscape:path-effect
       effect="bspline"
       id="path-effect4845"
       is_visible="true"
       lpeversion="1"
       weight="33.333333"
       steps="2"
       helper_size="0"
       apply_no_weight="true"
       apply_with_weight="true"
       only_selected="false"
       uniform="false" /><inkscape:path-effect
       effect="bspline"
       id="path-effect4837"
       is_visible="true"
       lpeversion="1"
       weight="33.333333"
       steps="2"
       helper_size="0"
       apply_no_weight="true"
       apply_with_weight="true"
       only_selected="false"
       uniform="false" /><inkscape:path-effect
       effect="bspline"
       id="path-effect4833"
       is_visible="true"
       lpeversion="1"
       weight="33.333333"
       steps="2"
       helper_size="0"
       apply_no_weight="true"
       apply_with_weight="true"
       only_selected="false"
       uniform="false" /><inkscape:path-effect
       effect="bspline"
       id="path-effect4829"
       is_visible="true"
       lpeversion="1"
       weight="33.333333"
       steps="2"
       helper_size="0"
       apply_no_weight="true"
       apply_with_weight="true"
       only_selected="false"
       uniform="false" /></defs><g
     inkscape:label="Ebene 1"
     inkscape:groupmode="layer"
     id="layer1"
     transform="translate(-38.07907,-119.62641)"><g
       id="g7757"
       style="stroke:#d57031;stroke-width:8.43849;stroke-dasharray:none;stroke-opacity:1"
       transform="matrix(2.3732185,0,0,2.3669709,-45.895575,-221.81207)"><path
         style="opacity:1;fill:none;fill-opacity:1;stroke:#d57031;stroke-width:8.43849;stroke-linecap:round;stroke-linejoin:round;stroke-dasharray:none;stroke-opacity:1"
         d="m 39.573877,167.11148 c 9.273254,-2.87341 18.54634,-5.74676 25.599106,-8.8487 7.052765,-3.10194 11.885118,-6.43234 16.717518,-9.76278"
         id="path4831"
         inkscape:path-effect="#path-effect4833"
         inkscape:original-d="m 39.573877,167.11148 c 9.273352,-2.87309 18.546439,-5.74644 27.819262,-8.62006 4.832816,-3.33028 9.665171,-6.66068 14.497362,-9.99142" /><path
         style="opacity:1;fill:none;fill-opacity:1;stroke:#d57031;stroke-width:8.43849;stroke-linecap:round;stroke-linejoin:round;stroke-dasharray:none;stroke-opacity:1"
         d="m 81.890496,148.5 c 7.132894,4.28098 14.265455,8.56176 21.968694,11.45309 7.70325,2.89132 15.97687,4.39327 24.25031,5.89519"
         id="path4835"
         inkscape:path-effect="#path-effect4837"
         inkscape:original-d="m 81.890496,148.5 c 7.132852,4.28105 14.265414,8.56183 21.397694,12.84235 8.27421,1.50227 16.54783,3.00422 24.82131,4.50593" /></g><path
       style="fill:#000000;stroke-width:1"
       id="path16487"
       d="" /><path
       style="fill:#404040;stroke:none;stroke-width:0.999999"
       d="m 114.87661,276.48249 c -5.68076,-13.37484 -6.61157,-29.65223 -9.28051,-43.89596 -1.91033,-10.19546 -1.93103,-30.59003 -8.690553,-38.63109 -3.573695,-4.25102 -20.259921,-5.16429 -22.369531,1.11024 -2.316776,6.89103 3.174465,20.62498 4.462437,27.7662 3.662946,20.30921 7.363306,40.61351 10.776411,60.96667 1.259722,7.51227 1.082578,20.04826 5.762702,26.29606 3.999917,5.34074 29.357884,5.00302 34.709564,1.53035 6.41483,-4.16161 6.25263,-18.58391 7.55682,-25.38773 4.17526,-21.78221 4.97687,-47.85584 13.65266,-68.28272 6.15331,21.89691 8.18877,45.79934 11.67585,68.28272 1.01717,6.55873 0.52513,20.4677 6.89212,24.35249 5.98083,3.64946 31.07351,3.46535 35.15825,-2.58495 4.33476,-6.42222 4.52132,-17.92423 6.02113,-25.42557 3.6604,-18.30581 7.55622,-36.5616 11.2178,-54.87004 1.47055,-7.35644 2.34113,-15.1754 5.72727,-21.948 1.59855,-3.19574 5.4114,-8.02281 3.52389,-11.80572 -5.72607,-11.4774 -24.34892,1.40046 -27.40334,8.1477 -9.94367,21.97097 -14.33569,55.25054 -16.23304,79.25672 -4.88211,-5.61264 -4.80534,-14.79905 -5.99906,-21.94798 l -7.71479,-45.11532 c -1.0254,-6.1538 -0.951,-15.18319 -4.6858,-20.38912 -5.30325,-7.39411 -31.27583,-6.14067 -36.36215,1.15723 -4.61218,6.61785 -4.81968,17.60662 -6.46159,25.32852 -3.96581,18.64983 -7.16139,37.6323 -11.93654,56.0893"
       id="path16507"
       sodipodi:nodetypes="cscsssccccscccccccccccccc" /></g></svg>
