<?xml version="1.0" encoding="UTF-8" standalone="no"?>
<!-- Created with Inkscape (http://www.inkscape.org/) -->

<svg
   width="1200"
   height="630"
   viewBox="0 0 317.5 166.6875"
   version="1.1"
   id="svg5"
   xml:space="preserve"
   inkscape:version="1.4 (e7c3feb100, 2024-10-09)"
   sodipodi:docname="logo-sharing-default.svg"
   inkscape:export-filename="logo-sharing-default.png"
   inkscape:export-xdpi="96"
   inkscape:export-ydpi="96"
   xmlns:inkscape="http://www.inkscape.org/namespaces/inkscape"
   xmlns:sodipodi="http://sodipodi.sourceforge.net/DTD/sodipodi-0.dtd"
   xmlns="http://www.w3.org/2000/svg"
   xmlns:svg="http://www.w3.org/2000/svg"><sodipodi:namedview
     id="namedview7"
     pagecolor="#ffffff"
     bordercolor="#000000"
     borderopacity="0.25"
     inkscape:showpageshadow="2"
     inkscape:pageopacity="0.0"
     inkscape:pagecheckerboard="0"
     inkscape:deskcolor="#d1d1d1"
     inkscape:document-units="mm"
     showgrid="false"
     showguides="false"
     inkscape:zoom="0.47114089"
     inkscape:cx="590.05704"
     inkscape:cy="137.96298"
     inkscape:window-width="1920"
     inkscape:window-height="1002"
     inkscape:window-x="0"
     inkscape:window-y="26"
     inkscape:window-maximized="1"
     inkscape:current-layer="layer1"><sodipodi:guide
       position="59.092433,245.02969"
       orientation="0,-1"
       id="guide4839"
       inkscape:locked="false" /><sodipodi:guide
       position="90.530431,263.37797"
       orientation="0,-1"
       id="guide4841"
       inkscape:locked="false" /><sodipodi:guide
       position="93.523951,237.66199"
       orientation="1,0"
       id="guide19473"
       inkscape:locked="false" /></sodipodi:namedview><defs
     id="defs2"><inkscape:path-effect
       effect="bspline"
       id="path-effect4849"
       is_visible="true"
       lpeversion="1"
       weight="33.333333"
       steps="2"
       helper_size="0"
       apply_no_weight="true"
       apply_with_weight="true"
       only_selected="false"
       uniform="false" /><inkscape:path-effect
       effect="bspline"
       id="path-effect4845"
       is_visible="true"
       lpeversion="1"
       weight="33.333333"
       steps="2"
       helper_size="0"
       apply_no_weight="true"
       apply_with_weight="true"
       only_selected="false"
       uniform="false" /><inkscape:path-effect
       effect="bspline"
       id="path-effect4837"
       is_visible="true"
       lpeversion="1"
       weight="33.333333"
       steps="2"
       helper_size="0"
       apply_no_weight="true"
       apply_with_weight="true"
       only_selected="false"
       uniform="false" /><inkscape:path-effect
       effect="bspline"
       id="path-effect4833"
       is_visible="true"
       lpeversion="1"
       weight="33.333333"
       steps="2"
       helper_size="0"
       apply_no_weight="true"
       apply_with_weight="true"
       only_selected="false"
       uniform="false" /><inkscape:path-effect
       effect="bspline"
       id="path-effect4829"
       is_visible="true"
       lpeversion="1"
       weight="33.333333"
       steps="2"
       helper_size="0"
       apply_no_weight="true"
       apply_with_weight="true"
       only_selected="false"
       uniform="false" /></defs><g
     inkscape:label="Ebene 1"
     inkscape:groupmode="layer"
     id="layer1"
     transform="translate(-38.07907,-119.62641)"><rect
       style="fill:#ffffff;fill-opacity:1;stroke:none;stroke-width:20;stroke-linecap:square;paint-order:stroke fill markers"
       id="rect1"
       width="317.5"
       height="166.6875"
       x="38.079071"
       y="119.62641" /><path
       style="opacity:1;fill:none;fill-opacity:1;stroke:#b8482b;stroke-width:2.99999;stroke-linecap:round;stroke-linejoin:round;stroke-dasharray:none;stroke-opacity:1"
       d="m 60.005051,185.78023 c 0,16.52429 0,33.04804 -1.766196,44.61453 -1.766194,11.5665 -5.298347,18.17588 -8.830454,24.78517"
       id="path4827" /><g
       id="g7761"
       style="stroke:#ffce3e;stroke-width:1.43238;stroke-dasharray:none;stroke-opacity:1"
       transform="matrix(2.0803584,0,0,2.1085849,-37.40265,-162.35431)"><path
         style="opacity:1;fill:none;fill-opacity:1;stroke:#ffce3e;stroke-width:1.43238;stroke-linecap:round;stroke-linejoin:round;stroke-dasharray:none;stroke-opacity:1"
         d="m 116.90946,163.63407 c 8.48964,-2.02445 16.97909,-4.04886 23.31351,-6.2039 6.33443,-2.15504 10.51376,-4.44061 14.69309,-6.72618"
         id="path4843"
         inkscape:original-d="m 116.90946,163.63407 c 8.48971,-2.02414 16.97916,-4.04855 25.46834,-6.07322 4.17977,-2.2854 8.3591,-4.57097 12.53826,-6.85686"
         inkscape:path-effect="#path-effect4845" /><path
         style="opacity:1;fill:none;fill-opacity:1;stroke:#ffce3e;stroke-width:1.43238;stroke-linecap:round;stroke-linejoin:round;stroke-dasharray:none;stroke-opacity:1"
         d="m 154.91606,150.70399 c 4.16132,2.05596 8.3224,4.11179 13.43813,6.06734 5.11574,1.95554 11.1859,3.81077 17.25594,5.66596"
         id="path4847"
         inkscape:original-d="m 154.91606,150.70399 c 4.16128,2.05604 8.32236,4.11187 12.48324,6.16751 6.07059,1.8555 12.14075,3.71073 18.21083,5.56579"
         inkscape:path-effect="#path-effect4849" /></g><g
       id="g7757"
       style="stroke:#d57031;stroke-width:1.43238;stroke-dasharray:none;stroke-opacity:1"
       transform="matrix(2.0803584,0,0,2.1085849,-37.40265,-162.35431)"><path
         style="opacity:1;fill:none;fill-opacity:1;stroke:#d57031;stroke-width:1.43238;stroke-linecap:round;stroke-linejoin:round;stroke-dasharray:none;stroke-opacity:1"
         d="m 39.573877,167.11148 c 9.273254,-2.87341 18.54634,-5.74676 25.599106,-8.8487 7.052765,-3.10194 11.885118,-6.43234 16.717518,-9.76278"
         id="path4831"
         inkscape:path-effect="#path-effect4833"
         inkscape:original-d="m 39.573877,167.11148 c 9.273352,-2.87309 18.546439,-5.74644 27.819262,-8.62006 4.832816,-3.33028 9.665171,-6.66068 14.497362,-9.99142" /><path
         style="opacity:1;fill:none;fill-opacity:1;stroke:#d57031;stroke-width:1.43238;stroke-linecap:round;stroke-linejoin:round;stroke-dasharray:none;stroke-opacity:1"
         d="m 81.890496,148.5 c 7.132894,4.28098 14.265455,8.56176 21.968694,11.45309 7.70325,2.89132 15.97687,4.39327 24.25031,5.89519"
         id="path4835"
         inkscape:path-effect="#path-effect4837"
         inkscape:original-d="m 81.890496,148.5 c 7.132852,4.28105 14.265414,8.56183 21.397694,12.84235 8.27421,1.50227 16.54783,3.00422 24.82131,4.50593" /></g><path
       style="fill:#8d5f98;stroke:none;stroke-width:1"
       d="m 177.27937,231.71938 c 0.82243,1.64694 0.58175,3.4675 0.58175,5.26997 v 9.56401 c 0,1.34637 -0.31981,3.16705 0.0617,4.46033 0.26244,0.88985 2.92119,0.9609 3.31176,0.162 0.79886,-1.63407 0.11698,-5.14035 0.11698,-6.96454 0.59851,-0.0122 1.52079,-0.30117 2.05734,0.0136 0.64596,0.37847 0.96121,1.48184 1.23902,2.13394 0.74435,1.74729 1.51353,5.00549 3.12309,6.128 1.00066,0.69778 3.19887,-0.31678 2.94789,-1.63954 -0.52189,-2.75053 -2.49177,-5.60081 -3.54997,-8.19695 2.75534,-1.16348 3.09575,-4.72112 3.27915,-7.41698 0.13757,-2.02196 0.004,-3.75333 -2.49975,-3.27356 -1.49986,0.28746 -0.80591,3.58355 -1.06053,4.83502 -0.6292,3.09235 -2.53237,4.03647 -5.53624,4.09887 l 0.20155,-6.63626 -0.12481,-2.22443 -4.14891,-0.31295 m 57.97983,4.68441 c -1.23174,0.13973 -1.51932,0.95654 -1.32869,2.14326 0.1654,1.02963 1.33102,1.22674 1.48595,2.34613 0.34749,2.50971 0.0367,5.27293 0.0367,7.80719 0,0.80709 -0.30755,2.40662 0.61044,2.81007 0.57921,0.25452 2.24122,0.33571 2.56914,-0.33474 0.36279,-0.74247 0.11697,-2.05469 0.11697,-2.8657 0,-2.33478 -0.42002,-5.1431 0.13262,-7.41682 0.33954,-1.39594 2.68763,-2.06466 2.05916,-3.85926 -0.30677,-0.87629 -1.52609,-0.3786 -1.99245,-1.08255 -0.69692,-1.05176 0.26255,-2.86175 -0.59183,-3.89177 -0.50184,-0.60505 -2.2678,-0.26209 -2.67559,0.32997 -0.67404,0.97853 -0.42235,2.88344 -0.42235,4.01422 m -37.03727,0.4732 c -1.29301,0.17089 -3.61629,-0.21712 -4.53698,0.94745 -0.55555,0.70291 -0.31083,2.03292 -0.31083,2.8734 0,2.4917 0.17606,4.94616 0.49951,7.41698 0.1132,0.86506 -0.0622,2.31099 0.61315,2.97812 0.516,0.50944 1.52862,0.34001 2.18385,0.34001 2.04518,1.9e-4 4.60444,0.48309 6.58449,0.14776 1.75083,-0.2965 1.36592,-5.40074 1.36592,-6.78401 0,-1.81326 0.72696,-5.72387 -0.51446,-7.16744 -1.07349,-1.2484 -4.41423,-0.94661 -5.88465,-0.75227 m 24.43393,0.0289 c -1.39307,0.40923 -1.35797,1.80844 -1.35837,3.01119 -3.7e-4,0.83564 -0.18303,1.9536 0.22863,2.71443 0.81521,1.50642 3.59765,2.5044 5.00702,3.39853 0.66822,0.42375 2.14835,1.07118 2.08339,2.05666 -0.0498,0.75731 -1.19527,0.59823 -1.69556,0.62127 -1.17221,0.0543 -4.46407,-0.20045 -5.2085,0.83519 -0.40275,0.56017 -0.54896,1.63798 0.19566,1.96725 0.64534,0.28517 1.6085,0.11774 2.29805,0.11774 1.90131,0 5.20849,0.64839 6.95215,-0.11774 0.918,-0.40344 0.61044,-2.00296 0.61044,-2.81005 0,-3.09893 -0.97382,-3.90661 -3.49042,-5.59533 -0.69963,-0.46943 -3.25638,-1.66094 -3.25638,-2.61504 0,-0.69353 1.04209,-0.73844 1.51117,-0.79821 1.22766,-0.15644 3.85129,0.17956 4.73844,-0.81266 0.64437,-0.72073 0.54897,-1.84379 -0.47607,-2.04039 -2.0987,-0.40252 -6.09019,-0.53492 -8.13965,0.0671 m -11.44181,3.59675 3.1026,0.39037 c 0.097,2.27233 0.67618,4.58877 1.04985,6.83143 0.16792,1.00832 0.16287,2.36622 0.61083,3.28924 0.34729,0.71536 1.69207,0.82252 2.34982,0.49674 0.81191,-0.40227 0.44949,-2.44682 0.44949,-3.20043 0,-2.73472 -0.33449,-5.48739 -0.69344,-8.19771 -0.12763,-0.96361 0.0153,-2.29022 -1.06302,-2.72626 -1.96512,-0.79466 -5.06382,-0.40023 -7.16351,-0.39668 -0.83926,9.6e-4 -1.84546,-0.0493 -2.32151,0.80197 -0.88774,1.58742 -0.19936,5.19642 -0.19936,7.00538 v 4.87959 c 7.5e-4,0.52173 -0.12182,1.37683 0.33781,1.7512 0.58968,0.48015 2.12915,0.29414 2.45667,-0.4138 0.74229,-1.6044 0.43357,-4.27666 0.5096,-6.02181 0.0657,-1.50682 0.50979,-2.97909 0.57417,-4.48923 m 32.18947,-0.97591 c 1.78981,0.33448 5.76715,-0.12833 6.78694,1.56146 -1.74134,0.0753 -5.42218,-0.0273 -6.74273,1.23024 -1.29416,1.23278 -1.20963,5.44408 -1.20613,7.16267 9.6e-4,0.74345 0.0834,1.51344 0.79523,1.91689 1.87319,1.06142 6.1796,0.2309 8.3171,0.23013 0.8792,-4e-4 1.91837,0.0928 2.54432,-0.66244 0.74792,-0.90254 0.55827,-2.34808 0.55827,-3.43642 0,-2.85359 0.52357,-6.91128 -1.28932,-9.36024 -1.31976,-1.78292 -4.53929,-1.17968 -6.46716,-1.17968 -0.70838,0 -1.64865,-0.14838 -2.28565,0.23012 -0.7805,0.46376 -0.96821,1.47788 -1.01087,2.30727 m 17.45212,0.97591 3.10259,0.39037 c 0.097,2.27233 0.67618,4.58877 1.04984,6.83143 0.16793,1.00832 0.16289,2.36622 0.61083,3.28924 0.34729,0.71536 1.69209,0.82252 2.34984,0.49674 0.81191,-0.40227 0.44948,-2.44682 0.44948,-3.20043 0,-2.73472 -0.33451,-5.48739 -0.69344,-8.19771 -0.12763,-0.96361 0.0154,-2.29022 -1.06302,-2.72626 -1.96511,-0.79466 -5.06382,-0.40023 -7.1635,-0.39668 -0.83926,9.6e-4 -1.84547,-0.0493 -2.32152,0.80197 -0.88775,1.58742 -0.19935,5.19642 -0.19935,7.00538 v 4.87959 c 7.3e-4,0.52173 -0.12196,1.37683 0.3378,1.7512 0.58969,0.48015 2.12915,0.29414 2.45667,-0.4138 0.74229,-1.6044 0.43358,-4.27647 0.50961,-6.02181 0.0657,-1.50682 0.50978,-2.97909 0.57417,-4.48923 m 16.48255,-0.39036 c -1.18403,2.86237 -3.08243,5.4347 -4.78324,8.00253 -0.45084,0.68081 -1.8092,2.1402 -1.47858,3.03825 0.26915,0.73095 1.7933,0.47506 2.38357,0.47506 2.24668,0 6.25639,0.78972 8.30934,-0.11774 0.84817,-0.37494 0.60055,-1.95125 -0.0327,-2.4318 -0.62052,-0.47077 -1.54122,-0.34469 -2.26549,-0.39583 -0.84875,-0.0597 -1.66589,-0.17702 -2.52085,-0.17761 1.05333,-2.46068 2.73068,-4.71272 4.06983,-7.02662 0.56002,-0.96739 1.31104,-2.34582 0.85496,-3.50261 -0.3279,-0.83132 -1.23445,-0.96286 -2.01611,-0.98375 -1.93621,-0.0517 -3.88038,-0.003 -5.81737,-0.003 -0.70817,0 -1.80843,-0.20459 -2.45919,0.11774 -0.75782,0.37536 -0.45648,1.79722 0.0649,2.25214 0.56797,0.49575 1.68412,0.41773 2.39424,0.50212 1.10899,0.13174 2.20071,-0.0122 3.2965,0.25091 m -76.59539,8.19773 c -0.86117,-0.16337 -2.32774,-0.12575 -3.00294,-0.73038 -1.07059,-0.95836 -1.56526,-5.77022 -0.59997,-6.83721 0.72001,-0.79586 3.69268,-1.46513 4.26162,-0.1952 0.47837,1.06817 0.20148,3.29659 0.0615,4.44467 -0.13554,1.11097 -0.28661,2.28559 -0.72019,3.31812 m 50.0294,-4.29406 c 1.9e-4,1.12173 0.63585,3.26485 -0.006,4.23198 -0.67618,1.01985 -4.12104,0.45244 -5.23021,0.45244 0,-1.09615 -0.25092,-2.68026 0.41496,-3.6316 0.86408,-1.23453 3.50594,-1.05282 4.82066,-1.05282 z"
       id="path16493" /><path
       style="fill:#000000;stroke-width:1"
       id="path16487"
       d="" /><path
       style="fill:#404040;stroke:none;stroke-width:1"
       d="m 130.9409,208.52955 c -1.96279,-2.2e-4 -5.99016,-1.1126 -7.46293,0.62998 -0.57883,0.68478 -0.46073,1.65989 -0.56972,2.49296 -0.3438,2.62796 -0.14892,5.57836 0.19393,8.19772 0.14252,1.08953 0.0271,2.47747 1.25403,2.97811 0.9839,0.40151 2.43631,0.14485 3.48208,0.14485 1.38841,0 3.98878,0.4938 5.15226,-0.40795 0.83866,-0.64975 0.79911,-2.34279 0.87572,-3.30056 0.22241,-2.78644 0.37113,-5.59396 0.37113,-8.39289 0,-1.83297 0.0839,-3.63384 0.16677,-5.45747 0.026,-0.56769 0.16833,-1.55923 -0.28388,-1.98737 -0.65698,-0.62189 -2.47956,-0.69332 -2.86855,0.24442 -0.52938,1.27689 -0.31084,3.47591 -0.31084,4.8582 m 43.43638,9.17364 c 3.2044,-0.39641 3.18482,4.46327 5.30913,6.10087 0.85825,0.66167 2.65874,-0.0998 2.6979,-1.22888 0.0355,-1.02978 -1.11752,-2.44194 -1.60792,-3.31052 -0.54064,-0.95756 -1.11849,-1.91671 -1.55129,-2.92776 2.39055,-0.69484 3.09774,-3.0187 3.47471,-5.26995 0.29513,-1.7624 0.0696,-3.25508 -2.11365,-2.89886 -1.56682,0.25568 -0.99361,3.46913 -1.61374,4.65251 -0.81133,1.54787 -3.07778,1.65855 -4.59514,1.95484 v -5.07479 c 0,-1.59252 0.84895,-4.79166 0.15551,-6.2013 -0.41944,-0.85314 -2.53483,-0.92157 -3.05877,-0.15513 -0.66377,0.97063 -0.19933,3.44974 -0.19933,4.59977 v 10.34476 c 0,1.14943 -0.3923,3.19008 0.11696,4.23197 0.36533,0.74736 2.36262,0.63904 2.78633,0 0.68508,-1.0333 0.19934,-3.5988 0.19934,-4.81753 m 39.75205,-9.17364 c -1.96298,-2.2e-4 -5.99014,-1.1126 -7.46292,0.62998 -0.57882,0.68478 -0.46073,1.65992 -0.5697,2.49296 -0.34381,2.62796 -0.14894,5.57836 0.19389,8.19772 0.14253,1.08953 0.0271,2.47747 1.25404,2.97811 0.98392,0.40151 2.43632,0.14485 3.48209,0.14485 1.38841,0 3.98878,0.4938 5.15225,-0.40795 0.83868,-0.64975 0.79912,-2.34279 0.87571,-3.30056 0.22242,-2.78644 0.37115,-5.59396 0.37115,-8.39289 0,-1.83297 0.0838,-3.63384 0.16677,-5.45747 0.0259,-0.56769 0.16831,-1.55923 -0.28389,-1.98737 -0.65698,-0.62189 -2.47957,-0.69332 -2.86856,0.24442 -0.52936,1.27689 -0.31083,3.47591 -0.31083,4.8582 m -48.67202,-0.78074 c 0.0919,-2.84366 3.47064,-0.39408 4.2847,-2.73558 1.006,-2.89443 -3.78654,-1.94863 -5.44817,-1.78679 -0.76033,0.074 -1.81522,-0.0884 -2.29223,0.67305 -0.57807,0.923 -0.0164,2.23799 -0.29029,3.24344 -0.31318,1.15018 -1.44077,1.47484 -1.04016,2.92701 0.28098,1.01845 1.27091,1.31911 1.4336,2.55847 0.38065,2.90337 0.0561,6.05012 0.0561,8.97846 0,1.00325 -0.57922,5.95156 0.97326,5.63808 2.46792,-0.4985 2.32326,-2.4519 2.32326,-4.46698 0,-3.38878 -0.48634,-7.19505 0.0415,-10.53978 0.25422,-1.6109 2.36727,-1.66559 2.16076,-3.67974 -0.0865,-0.84377 -1.58582,-0.783 -2.20226,-0.80964 m 21.53494,-4.57267 c -1.3537,0.42201 -2.24124,5.24891 0.18326,4.56469 0.61954,-0.17485 1.3981,-0.39317 1.73976,-0.99399 0.83189,-1.46265 0.0556,-4.18753 -1.92302,-3.5707 m 95.78207,4.57267 c -1.23133,0.13974 -1.51834,0.95655 -1.3283,2.14326 0.16483,1.02964 1.33025,1.22672 1.48537,2.34612 0.34711,2.50972 0.0368,5.27294 0.0368,7.80721 0,0.80709 -0.30832,2.40662 0.61082,2.81005 0.57981,0.25453 2.24163,0.33573 2.56934,-0.33473 0.36262,-0.74247 0.1163,-2.05471 0.1163,-2.86569 0,-2.33479 -0.42079,-5.14309 0.13181,-7.41684 0.33934,-1.39592 2.68762,-2.06467 2.05935,-3.85924 -0.30638,-0.8763 -1.5261,-0.37859 -1.99149,-1.08254 -0.69808,-1.05176 0.26179,-2.8618 -0.59143,-3.89179 -0.50223,-0.60506 -2.26877,-0.26207 -2.67599,0.32997 -0.67482,0.97851 -0.42273,2.88345 -0.42273,4.01422 m -165.40713,-4.38033 c -2.0103,0.53034 -1.35759,3.35443 -1.35759,4.96589 v 10.14956 c 0,1.04638 -0.39519,3.14012 0.19934,4.03679 0.45608,0.68803 2.36437,0.60234 3.06828,0.39037 0.7514,-0.22622 0.0246,-3.71318 0.0291,-4.62234 0.0183,-3.86797 0.35525,-7.63114 0.18616,-11.51585 -0.0678,-1.55556 0.0968,-3.99066 -2.12528,-3.40442 m -35.486169,13.94434 c -0.903413,-2.14097 -1.051451,-4.74656 -1.475886,-7.02662 -0.303801,-1.63203 -0.307098,-4.89667 -1.382069,-6.18383 -0.568339,-0.68048 -3.22197,-0.82668 -3.557462,0.17771 -0.368449,1.10308 0.504835,3.30153 0.709665,4.44466 0.582529,3.25098 1.170994,6.50118 1.713792,9.75919 0.200338,1.20252 0.172158,3.20922 0.916452,4.20932 0.636111,0.85492 4.668827,0.80086 5.519911,0.24498 1.020156,-0.66617 0.994366,-2.97481 1.201775,-4.06393 0.663992,-3.48677 0.791471,-7.66048 2.171194,-10.93031 0.97858,3.50514 1.302279,7.3313 1.856833,10.93031 0.161756,1.04989 0.08351,3.27635 1.096069,3.89821 0.95114,0.58418 4.941663,0.55471 5.591267,-0.41379 0.689363,-1.02803 0.719031,-2.86921 0.957545,-4.06997 0.582118,-2.93029 1.201672,-5.85257 1.783988,-8.78328 0.233861,-1.17758 0.372312,-2.42919 0.910809,-3.51331 0.254216,-0.51156 0.860586,-1.28425 0.560406,-1.88979 -0.910613,-1.83724 -3.872237,0.22417 -4.357987,1.30423 -1.581358,3.51699 -2.27983,8.84419 -2.581558,12.68696 -0.776422,-0.89844 -0.764206,-2.36895 -0.954049,-3.5133 l -1.226884,-7.22181 c -0.163076,-0.98506 -0.151248,-2.43044 -0.745202,-3.26377 -0.843382,-1.1836 -4.973837,-0.98296 -5.782722,0.18524 -0.733475,1.05936 -0.766478,2.81837 -1.027603,4.05445 -0.630679,2.98536 -1.138885,6.02396 -1.898284,8.97845 m 76.196129,-9.39654 c -1.19723,-0.18724 -5.66691,-0.37083 -6.44721,0.67531 -0.38763,0.51969 -0.13748,1.47736 -0.13465,2.08498 0.008,1.75656 2e-4,3.51332 2e-4,5.26997 v 5.26997 c 9.6e-4,0.72198 -0.0993,1.57571 0.78708,1.72776 2.3289,0.39915 2.21062,-1.102 2.33298,-2.89887 0.14349,-2.11092 -0.25074,-6.14342 0.76361,-7.98206 0.695,-1.25997 2.57129,-0.79848 3.28567,-1.86102 0.44483,-0.66161 0.32518,-2.14326 -0.58777,-2.28604 m 30.2581,-0.0354 c -0.86485,0.0641 -2.25306,0.65167 -2.67637,1.44007 -0.48091,0.89559 -0.22863,2.32131 -0.22863,3.30744 v 6.83143 c 0,0.85062 -0.22707,2.10585 0.11698,2.89888 0.31918,0.73564 1.35001,0.66206 2.01513,0.60291 1.5294,-0.13566 1.35837,-1.74494 1.35837,-2.91624 1.8e-4,-2.99002 -0.0808,-6.21095 0.30559,-9.17363 0.10956,-0.8399 0.47896,-3.09227 -0.89102,-2.99086 m 53.89992,0.0354 c -1.19723,-0.18724 -5.6669,-0.37085 -6.44722,0.67531 -0.38763,0.51969 -0.13748,1.47736 -0.13451,2.08498 0.008,1.75656 2e-4,3.51332 2e-4,5.26997 v 5.26997 c 9.6e-4,0.72198 -0.0993,1.57571 0.78708,1.72776 2.32889,0.39915 2.21061,-1.102 2.33277,-2.89887 0.14369,-2.11092 -0.25054,-6.14342 0.76381,-7.98206 0.69497,-1.25995 2.57129,-0.79851 3.28567,-1.86102 0.44483,-0.66163 0.32517,-2.14326 -0.58777,-2.28604 m 37.23099,0 c -1.19644,-0.18724 -5.66613,-0.37085 -6.4476,0.67531 -0.38781,0.51969 -0.13766,1.47736 -0.13384,2.08498 0.008,1.75656 0,3.51332 0,5.26997 v 5.26997 c 0.003,0.72198 -0.0989,1.57571 0.7873,1.72776 2.32888,0.39915 2.2106,-1.102 2.33276,-2.89887 0.1435,-2.11092 -0.25013,-6.14342 0.76403,-7.98206 0.6942,-1.25995 2.57127,-0.79851 3.28486,-1.86102 0.44601,-0.6616 0.32578,-2.14326 -0.58756,-2.28604 m -137.08443,0.30573 c -1.29301,0.17089 -3.61647,-0.21711 -4.53698,0.94745 -0.55556,0.70293 -0.31083,2.03292 -0.31083,2.8734 0,2.49173 0.17606,4.94615 0.49951,7.41698 0.11319,0.86507 -0.0622,2.31098 0.61316,2.97812 0.516,0.50943 1.5286,0.34001 2.18384,0.34001 2.04519,2e-4 4.60444,0.48309 6.58449,0.14776 1.75083,-0.29649 1.36592,-5.40073 1.36592,-6.78401 0,-1.81325 0.72697,-5.72388 -0.51446,-7.16744 -1.07349,-1.24839 -4.41403,-0.9466 -5.88465,-0.75227 m 81.83104,9.67637 c 2.32035,0 6.57577,0.25295 8.48794,-1.30831 1.60618,-1.31145 0.55867,-7.08368 -1.1276,-8.02842 -1.99363,-1.11695 -5.77686,-0.46829 -7.94208,-0.19685 -0.81115,0.10172 -2.01475,0.22776 -2.59785,0.87695 -0.58639,0.65297 -0.49389,2.535 -0.50398,3.38666 -0.0325,2.75677 -0.79736,7.5181 1.23833,9.73031 0.69886,0.75926 1.70177,0.61445 2.63915,0.61445 2.30813,0 5.32717,0.52366 7.55911,-0.062 0.8914,-0.23403 1.60326,-1.74241 0.96762,-2.55282 -0.4524,-0.57676 -1.87358,-0.31288 -2.51545,-0.31288 -2.18539,0 -5.23873,0.31015 -6.20519,-2.14702 m 28.50514,4.8796 c -0.0271,2.30727 -2.3194,1.89406 -4.07217,1.60948 -0.61044,-0.0991 -1.72,-0.45654 -1.98294,0.37144 -0.40858,1.28665 0.77953,1.95359 1.78903,2.18333 1.76944,0.40246 5.64188,1.02335 7.01885,-0.53266 1.26955,-1.4346 0.54374,-5.32404 0.54374,-7.1449 0,-2.55028 -0.004,-5.07322 -0.17665,-7.61218 -0.0558,-0.82196 0.25052,-2.13242 -0.48926,-2.7151 -1.1272,-0.88789 -3.96647,-0.58726 -5.34538,-0.60378 -1.05314,-0.0122 -2.26897,-0.44566 -3.27847,0.003 -1.18792,0.52744 -1.25638,1.99074 -1.36088,3.12112 -0.23502,2.54228 -0.40645,5.05547 -0.40238,7.61218 9.7e-4,1.05146 -0.007,2.45872 0.82975,3.23361 1.58408,1.46739 5.01322,0.48015 6.92676,0.47488 m 41.10942,-4.87961 c 2.32113,0 6.57558,0.25297 8.48756,-1.30831 1.60558,-1.31163 0.55845,-7.08365 -1.12664,-8.02842 -1.99341,-1.11694 -5.77665,-0.46828 -7.94266,-0.19683 -0.81055,0.1017 -2.01474,0.22773 -2.59842,0.87696 -0.58562,0.65298 -0.49254,2.535 -0.50417,3.38665 -0.031,2.75658 -0.79699,7.51808 1.23909,9.73031 0.69808,0.75926 1.70256,0.61443 2.63916,0.61443 2.30756,0 5.32677,0.52369 7.5587,-0.062 0.89199,-0.234 1.60366,-1.74238 0.96763,-2.55279 -0.45183,-0.57678 -1.8732,-0.31288 -2.51504,-0.31288 -2.18541,0 -5.23952,0.31014 -6.20521,-2.14703 m -191.58537,-7.02677 c 1.78982,0.33448 5.76715,-0.12819 6.78694,1.56148 -1.74133,0.0753 -5.42238,-0.0272 -6.74272,1.23025 -1.29417,1.23259 -1.20962,5.44406 -1.20614,7.16265 0.001,0.74347 0.0834,1.51347 0.79524,1.9169 1.87319,1.06141 6.1796,0.23092 8.31709,0.23013 0.87921,-3.9e-4 1.91837,0.0928 2.54433,-0.66247 0.74772,-0.90252 0.55826,-2.34805 0.55826,-3.4364 0,-2.85358 0.52357,-6.91128 -1.28931,-9.36023 -1.31978,-1.78293 -4.5393,-1.17969 -6.46717,-1.17969 -0.70836,0 -1.64865,-0.14839 -2.28565,0.23011 -0.78069,0.46379 -0.9682,1.47791 -1.01087,2.30727 m 93.4658,0.97593 3.1026,0.39036 c 0.097,2.27233 0.67617,4.58878 1.04984,6.83144 0.16793,1.00832 0.16289,2.36622 0.61081,3.28924 0.34731,0.71535 1.69209,0.82249 2.34984,0.49674 0.81191,-0.40227 0.44949,-2.44682 0.44949,-3.20042 0,-2.73473 -0.3345,-5.48741 -0.69343,-8.19773 -0.12763,-0.9636 0.0153,-2.29021 -1.06303,-2.72625 -1.9651,-0.79468 -5.06382,-0.40022 -7.16351,-0.39669 -0.83924,9.6e-4 -1.84547,-0.0493 -2.32152,0.80197 -0.88773,1.58743 -0.19933,5.19641 -0.19933,7.00538 v 4.8796 c 7.2e-4,0.52173 -0.12184,1.37683 0.33778,1.75119 0.58969,0.48015 2.12917,0.29413 2.45669,-0.41379 0.74229,-1.60441 0.43358,-4.27669 0.50959,-6.02182 0.0657,-1.50681 0.5098,-2.97908 0.57418,-4.48922 m 63.60327,-0.97593 c 1.78981,0.33449 5.76696,-0.12819 6.78693,1.56148 -1.74133,0.0753 -5.42237,-0.0273 -6.74272,1.23025 -1.29418,1.23277 -1.20962,5.44406 -1.20613,7.16265 9.6e-4,0.74347 0.0834,1.51347 0.79523,1.9169 1.87321,1.06141 6.18019,0.23092 8.3171,0.23013 0.87843,-3.9e-4 1.9178,0.0928 2.54414,-0.66247 0.74849,-0.90252 0.55847,-2.34805 0.55847,-3.4364 0,-2.85358 0.52355,-6.91126 -1.28953,-9.36023 -1.3186,-1.78293 -4.5391,-1.17969 -6.46698,-1.17969 -0.70837,0 -1.64865,-0.14839 -2.28564,0.23011 -0.78069,0.46379 -0.9682,1.47791 -1.01087,2.30727 m 49.8355,0.97593 3.10259,0.39036 c 0.097,2.27233 0.67675,4.58878 1.04906,6.83144 0.16871,1.00832 0.16289,2.36622 0.61083,3.28924 0.34709,0.71535 1.69285,0.82249 2.35023,0.49674 0.81248,-0.40227 0.44987,-2.44682 0.44987,-3.20042 0,-2.73473 -0.33354,-5.48741 -0.69421,-8.19773 -0.12601,-0.9636 0.0155,-2.29021 -1.06264,-2.72625 -1.96434,-0.79468 -5.06305,-0.40022 -7.16312,-0.39669 -0.83964,9.6e-4 -1.84604,-0.0493 -2.32113,0.80197 -0.88812,1.58742 -0.19974,5.19641 -0.19974,7.00538 v 4.8796 c 0,0.52173 -0.12223,1.37683 0.33742,1.75119 0.58948,0.48015 2.12915,0.29413 2.45685,-0.41379 0.7427,-1.60441 0.43438,-4.27648 0.51,-6.02182 0.0658,-1.50681 0.50999,-2.97908 0.57399,-4.48922 m -81.05542,-0.91719 c 1.57767,-0.14032 2.76189,1.85202 1.74347,3.1825 -0.69597,0.90896 -2.44485,0.96341 -3.48868,1.03524 -1.98896,0.13742 -3.61453,-1.23941 -1.71943,-3.06156 0.88794,-0.85371 2.29011,-1.05171 3.46464,-1.15618 m 69.61455,0 c 1.57846,-0.14032 2.76131,1.85202 1.74328,3.1825 -0.69614,0.90916 -2.44522,0.96341 -3.48848,1.03524 -1.98955,0.13742 -3.61454,-1.23941 -1.72001,-3.06156 0.88813,-0.85373 2.2901,-1.05171 3.46521,-1.15618 m -152.80299,8.72411 c -0.86115,-0.16337 -2.32771,-0.12575 -3.00292,-0.73038 -1.07059,-0.95835 -1.56526,-5.77022 -0.59995,-6.83721 0.71999,-0.79587 3.69267,-1.46513 4.2616,-0.19518 0.47837,1.06816 0.20147,3.29657 0.0615,4.44464 -0.13555,1.11099 -0.28661,2.2856 -0.72019,3.31813 m -14.73736,-0.39037 c -0.80764,0.10267 -2.65855,0.71692 -3.34924,0.18894 -0.4495,-0.34332 -0.53676,-1.23297 -0.63372,-1.75041 -0.25247,-1.34716 -0.93369,-4.78259 0.0927,-5.90582 0.80881,-0.88499 3.6979,-0.37605 4.20887,0.6571 0.38649,0.78155 0.099,2.23938 0.0617,3.1017 -0.054,1.23863 -0.2833,2.47298 -0.38026,3.70849 m 83.18844,0 c -0.80765,0.10267 -2.65854,0.71692 -3.34927,0.18894 -0.44948,-0.34352 -0.53675,-1.23297 -0.63369,-1.75041 -0.25249,-1.34716 -0.9337,-4.78259 0.0927,-5.90582 0.80879,-0.88498 3.6979,-0.37605 4.20887,0.6571 0.38646,0.78155 0.099,2.23938 0.0617,3.1017 -0.054,1.23863 -0.28331,2.47298 -0.38028,3.70849 m 35.76328,-7.49424 c 0.43107,-0.21371 1.02328,-0.0784 1.46792,0.0122 2.5864,0.52473 1.93913,2.97264 1.93913,5.14015 0,0.83012 0.26022,2.13766 -0.61045,2.60511 -0.39403,0.21159 -0.89024,0.27248 -1.32868,0.30509 -3.35818,0.24904 -2.80281,-2.53428 -2.4906,-5.05722 0.0954,-0.77118 0.23676,-2.61535 1.02268,-3.00502 m -139.50643,3.59057 c 2e-4,1.12172 0.63585,3.26484 -0.005,4.23198 -0.67617,1.01983 -4.12102,0.45242 -5.2302,0.45242 0,-1.09614 -0.25093,-2.68026 0.41497,-3.63158 0.86407,-1.23453 3.50593,-1.05282 4.82066,-1.05282 m 157.06907,0 c 0,1.12172 0.63603,3.26484 -0.006,4.23198 -0.67481,1.01983 -4.12064,0.45242 -5.22982,0.45242 0,-1.09614 -0.25092,-2.68026 0.41497,-3.63158 0.86408,-1.23453 3.50594,-1.05282 4.82066,-1.05282 z"
       id="path16507" /><path
       style="fill:#3f3f3f;stroke:none;stroke-width:1"
       d="m 141.30485,175.05077 c -1.35371,0.42201 -2.24124,5.2489 0.18324,4.56468 0.61955,-0.17485 1.39811,-0.39318 1.73979,-0.99399 0.83188,-1.46266 0.0556,-4.18754 -1.92303,-3.57069 m -34.52707,8.67153 c 0,-1.27196 -0.29989,-4.4665 0.82965,-5.28201 1.86079,-1.34347 6.03159,0.39568 7.04579,-2.13498 0.59154,-1.47603 -1.3722,-1.17111 -2.25198,-1.17111 h -6.39911 c -0.83522,0 -2.10215,-0.23497 -2.87696,0.11773 -0.78513,0.35748 -0.22563,3.32742 -0.22563,4.17628 v 11.71103 c 0,0.98274 -0.45215,3.30387 0.78701,3.64642 4.87344,1.34717 1.71867,-5.48387 3.59606,-7.408 0.94851,-0.97221 2.83659,-0.50279 3.91161,-1.28529 0.61031,-0.44424 1.25652,-1.99436 0.20873,-2.30807 -1.34005,-0.40122 -3.22815,-0.062 -4.62517,-0.062 m 15.50155,-3.9314 c -1.19722,-0.18723 -5.6669,-0.37083 -6.44722,0.67533 -0.38759,0.51968 -0.13738,1.47734 -0.13451,2.08497 0.009,1.75657 1.5e-4,3.51331 1.5e-4,5.26997 v 5.26997 c 0.002,0.72198 -0.0993,1.57572 0.78709,1.72776 2.32889,0.39915 2.2106,-1.10201 2.33296,-2.89887 0.1435,-2.11091 -0.25072,-6.14341 0.76363,-7.98206 0.69499,-1.25996 2.57128,-0.79848 3.28565,-1.86102 0.44485,-0.66162 0.32519,-2.14326 -0.58774,-2.28605 m 20.36855,-0.0354 c -0.86485,0.0639 -2.25307,0.65167 -2.67637,1.44008 -0.48091,0.8956 -0.22863,2.32131 -0.22863,3.30744 v 6.83144 c 0,0.85061 -0.22707,2.10583 0.11698,2.89887 0.31917,0.73565 1.34999,0.66206 2.01513,0.60292 1.52938,-0.13567 1.35835,-1.74495 1.35835,-2.91624 1.9e-4,-2.99002 -0.0808,-6.21095 0.3056,-9.17365 0.10955,-0.8399 0.47898,-3.09226 -0.89102,-2.99086 m 25.00693,0.0354 c -1.19721,-0.18723 -5.66689,-0.37082 -6.44719,0.67533 -0.38764,0.51968 -0.1375,1.47734 -0.13465,2.08497 0.008,1.75657 1.8e-4,3.51331 1.8e-4,5.26997 v 5.26997 c 9.6e-4,0.72198 -0.0993,1.57572 0.7871,1.72776 2.32888,0.39915 2.2106,-1.10201 2.33296,-2.89887 0.14349,-2.11091 -0.25073,-6.14341 0.76362,-7.98206 0.69499,-1.25997 2.57128,-0.79848 3.28566,-1.86102 0.44485,-0.66162 0.32518,-2.14326 -0.58775,-2.28605 m -39.15884,9.9821 c 2.32034,0 6.57574,0.25296 8.48792,-1.30831 1.60617,-1.31144 0.55848,-7.08368 -1.1276,-8.02842 -1.99361,-1.11694 -5.77684,-0.46828 -7.94206,-0.19685 -0.81114,0.10172 -2.01475,0.22774 -2.59785,0.87696 -0.58639,0.65299 -0.4939,2.53502 -0.50399,3.38667 -0.0326,2.75677 -0.79736,7.51808 1.23833,9.73031 0.69886,0.75925 1.70179,0.61443 2.63914,0.61443 2.30816,0 5.32718,0.52368 7.55891,-0.062 0.89161,-0.23402 1.60346,-1.7424 0.96782,-2.55281 -0.45241,-0.57676 -1.87359,-0.31288 -2.51544,-0.31288 -2.1854,0 -5.23873,0.31016 -6.20518,-2.14702 m 21.13643,0 c 2.32036,0 6.57577,0.25296 8.48793,-1.30831 1.60618,-1.31145 0.55846,-7.08368 -1.1276,-8.02843 -1.9936,-1.11694 -5.77683,-0.46827 -7.94207,-0.19684 -0.81112,0.10172 -2.01474,0.22774 -2.59783,0.87697 -0.58639,0.65298 -0.49389,2.53501 -0.50397,3.38664 -0.0325,2.75678 -0.79738,7.5181 1.23832,9.73031 0.69886,0.75926 1.70178,0.61445 2.63914,0.61445 2.30813,0 5.32715,0.52367 7.55889,-0.062 0.89162,-0.23402 1.60347,-1.74241 0.96781,-2.55281 -0.45239,-0.57676 -1.87357,-0.31288 -2.51542,-0.31288 -2.1854,0 -5.23874,0.31016 -6.2052,-2.14702 m -17.2582,-6.96788 c 1.57768,-0.14033 2.7619,1.852 1.74347,3.18248 -0.69596,0.90917 -2.44484,0.96343 -3.48867,1.03526 -1.98897,0.13741 -3.61454,-1.23941 -1.71942,-3.06156 0.88792,-0.85373 2.2901,-1.05173 3.46462,-1.15618 m 21.13644,0 c 1.57768,-0.14033 2.7619,1.85202 1.74348,3.18248 -0.69595,0.90917 -2.44486,0.96343 -3.48868,1.03526 -1.98896,0.13741 -3.61453,-1.23941 -1.71941,-3.06156 0.88792,-0.8537 2.2901,-1.05173 3.46461,-1.15618 z"
       id="path16521" /></g></svg>
