<?xml version="1.0" encoding="UTF-8" standalone="no"?>
<!-- Created with Inkscape (http://www.inkscape.org/) -->

<svg
   width="196.9312mm"
   height="79.889908mm"
   viewBox="0 0 196.93119 79.889907"
   version="1.1"
   id="svg5"
   xml:space="preserve"
   inkscape:version="1.4.1 (93de688d07, 2025-03-30)"
   sodipodi:docname="logo.svg"
   inkscape:export-filename="logo.png"
   inkscape:export-xdpi="111.31874"
   inkscape:export-ydpi="111.31874"
   xmlns:inkscape="http://www.inkscape.org/namespaces/inkscape"
   xmlns:sodipodi="http://sodipodi.sourceforge.net/DTD/sodipodi-0.dtd"
   xmlns:xlink="http://www.w3.org/1999/xlink"
   xmlns="http://www.w3.org/2000/svg"
   xmlns:svg="http://www.w3.org/2000/svg"><sodipodi:namedview
     id="namedview7"
     pagecolor="#ffffff"
     bordercolor="#000000"
     borderopacity="0.25"
     inkscape:showpageshadow="2"
     inkscape:pageopacity="0.0"
     inkscape:pagecheckerboard="0"
     inkscape:deskcolor="#d1d1d1"
     inkscape:document-units="mm"
     showgrid="false"
     showguides="false"
     inkscape:zoom="0.5843002"
     inkscape:cx="306.34937"
     inkscape:cy="85.572451"
     inkscape:window-width="1920"
     inkscape:window-height="1002"
     inkscape:window-x="0"
     inkscape:window-y="26"
     inkscape:window-maximized="1"
     inkscape:current-layer="layer1"><sodipodi:guide
       position="53.021333,245.02969"
       orientation="0,-1"
       id="guide4839"
       inkscape:locked="false" /><sodipodi:guide
       position="84.459331,263.37797"
       orientation="0,-1"
       id="guide4841"
       inkscape:locked="false" /><sodipodi:guide
       position="87.452851,237.66199"
       orientation="1,0"
       id="guide19473"
       inkscape:locked="false" /></sodipodi:namedview><defs
     id="defs2"><inkscape:path-effect
       effect="bspline"
       id="path-effect4849"
       is_visible="true"
       lpeversion="1"
       weight="33.333333"
       steps="2"
       helper_size="0"
       apply_no_weight="true"
       apply_with_weight="true"
       only_selected="false"
       uniform="false" /><inkscape:path-effect
       effect="bspline"
       id="path-effect4845"
       is_visible="true"
       lpeversion="1"
       weight="33.333333"
       steps="2"
       helper_size="0"
       apply_no_weight="true"
       apply_with_weight="true"
       only_selected="false"
       uniform="false" /><inkscape:path-effect
       effect="bspline"
       id="path-effect4837"
       is_visible="true"
       lpeversion="1"
       weight="33.333333"
       steps="2"
       helper_size="0"
       apply_no_weight="true"
       apply_with_weight="true"
       only_selected="false"
       uniform="false" /><inkscape:path-effect
       effect="bspline"
       id="path-effect4833"
       is_visible="true"
       lpeversion="1"
       weight="33.333333"
       steps="2"
       helper_size="0"
       apply_no_weight="true"
       apply_with_weight="true"
       only_selected="false"
       uniform="false" /><inkscape:path-effect
       effect="bspline"
       id="path-effect4829"
       is_visible="true"
       lpeversion="1"
       weight="33.333333"
       steps="2"
       helper_size="0"
       apply_no_weight="true"
       apply_with_weight="true"
       only_selected="false"
       uniform="false" /><linearGradient
       inkscape:collect="always"
       xlink:href="#linearGradient19"
       id="linearGradient16"
       gradientUnits="userSpaceOnUse"
       gradientTransform="translate(0.08616094,-0.07061622)"
       x1="301.00522"
       y1="120.23491"
       x2="314.73239"
       y2="147.21802" /><linearGradient
       id="linearGradient19"
       inkscape:collect="always"><stop
         style="stop-color:#61ab6f;stop-opacity:1;"
         offset="0"
         id="stop18" /><stop
         style="stop-color:#519db9;stop-opacity:0.99215686;"
         offset="1"
         id="stop19" /></linearGradient><linearGradient
       inkscape:collect="always"
       xlink:href="#linearGradient17"
       id="linearGradient12-1-9"
       x1="301.129"
       y1="119.7624"
       x2="313.3761"
       y2="87.784172"
       gradientUnits="userSpaceOnUse" /><linearGradient
       id="linearGradient17"
       inkscape:collect="always"><stop
         style="stop-color:#61ab6f;stop-opacity:1;"
         offset="0"
         id="stop16" /><stop
         style="stop-color:#efd940;stop-opacity:0.99607843;"
         offset="1"
         id="stop17" /></linearGradient><linearGradient
       inkscape:collect="always"
       xlink:href="#linearGradient21"
       id="linearGradient10-0-8"
       x1="314.60013"
       y1="86.584328"
       x2="348.37427"
       y2="70.575928"
       gradientUnits="userSpaceOnUse" /><linearGradient
       id="linearGradient21"
       inkscape:collect="always"><stop
         style="stop-color:#efd941;stop-opacity:1;"
         offset="0"
         id="stop20" /><stop
         style="stop-color:#feb13e;stop-opacity:0.99607843;"
         offset="1"
         id="stop21" /></linearGradient><linearGradient
       inkscape:collect="always"
       xlink:href="#linearGradient5"
       id="linearGradient8-6-3"
       x1="349.55136"
       y1="70.887932"
       x2="385.95181"
       y2="81.866165"
       gradientUnits="userSpaceOnUse"
       spreadMethod="pad" /><linearGradient
       id="linearGradient5"
       inkscape:collect="always"><stop
         style="stop-color:#fdb03e;stop-opacity:0.99607843;"
         offset="0.05055023"
         id="stop8" /><stop
         style="stop-color:#fa7054;stop-opacity:0.99607843;"
         offset="1"
         id="stop7" /></linearGradient></defs><g
     inkscape:label="Ebene 1"
     inkscape:groupmode="layer"
     id="layer1"
     transform="translate(-44.15017,-119.62641)"><path
       style="fill:#8d5f98;stroke:none;stroke-width:1"
       d="m 137.67554,180.74051 c 0.60959,1.21276 0.43119,2.55338 0.43119,3.88068 v 7.04272 c 0,0.99144 -0.23704,2.33214 0.0457,3.28449 0.19453,0.65526 2.1652,0.70758 2.4547,0.11929 0.59212,-1.20329 0.0867,-3.78524 0.0867,-5.12853 0.44362,-0.009 1.12722,-0.22177 1.52491,0.01 0.47879,0.2787 0.71246,1.0912 0.91837,1.57139 0.55172,1.28666 1.12184,3.68593 2.31485,4.51252 0.7417,0.51383 2.37103,-0.23327 2.185,-1.20732 -0.38683,-2.02543 -1.84692,-4.12431 -2.63126,-6.03605 2.04227,-0.85676 2.29459,-3.47653 2.43053,-5.4617 0.10196,-1.48892 0.003,-2.76386 -1.85284,-2.41057 -1.1117,0.21168 -0.59734,2.63884 -0.78607,3.5604 -0.46636,2.27713 -1.877,2.97236 -4.10349,3.01831 l 0.14939,-4.88679 -0.0925,-1.63802 -3.0752,-0.23045 m 42.97497,3.4495 c -0.91297,0.10289 -1.12612,0.70437 -0.98483,1.57824 0.1226,0.7582 0.98656,0.90334 1.1014,1.72764 0.25756,1.84809 0.0272,3.88286 0.0272,5.74904 0,0.59432 -0.22796,1.77218 0.45246,2.06927 0.42931,0.18742 1.66121,0.24721 1.90426,-0.2465 0.26891,-0.54674 0.0867,-1.51303 0.0867,-2.11023 0,-1.71928 -0.31132,-3.78726 0.0983,-5.46158 0.25167,-1.02794 1.99208,-1.52037 1.52626,-2.84187 -0.22738,-0.64528 -1.13115,-0.27879 -1.47682,-0.79717 -0.51656,-0.77449 0.19461,-2.10733 -0.43866,-2.86581 -0.37197,-0.44554 -1.68091,-0.193 -1.98317,0.24298 -0.4996,0.72057 -0.31304,2.1233 -0.31304,2.95599 m -27.45224,0.34845 c -0.95838,0.12584 -2.68041,-0.15988 -3.36283,0.69768 -0.41178,0.51761 -0.23039,1.49699 -0.23039,2.1159 0,1.83484 0.1305,3.64224 0.37024,5.4617 0.0839,0.63701 -0.0461,1.70176 0.45447,2.19302 0.38246,0.37514 1.13302,0.25038 1.61868,0.25038 1.5159,1.4e-4 3.41284,0.35573 4.88046,0.1088 1.29773,-0.21833 1.01243,-3.97698 1.01243,-4.99559 0,-1.33524 0.53883,-4.21493 -0.38132,-5.27794 -0.79568,-0.91929 -3.27185,-0.69706 -4.36174,-0.55395 m 18.11057,0.0213 c -1.03255,0.30135 -1.00654,1.33169 -1.00683,2.21737 -2.8e-4,0.61535 -0.13567,1.43859 0.16946,1.99885 0.60424,1.10929 2.6666,1.84418 3.71123,2.5026 0.49529,0.31204 1.59237,0.78879 1.54422,1.51448 -0.0369,0.55766 -0.88594,0.44052 -1.25676,0.45748 -0.86885,0.04 -3.30879,-0.1476 -3.86057,0.61502 -0.29852,0.4125 -0.40689,1.20617 0.14503,1.44864 0.47833,0.20999 1.19223,0.0867 1.70333,0.0867 1.40926,0 3.86056,0.47746 5.15297,-0.0867 0.68042,-0.29708 0.45246,-1.47494 0.45246,-2.06926 0,-2.28198 -0.7218,-2.87674 -2.58712,-4.12028 -0.51857,-0.34567 -2.41364,-1.22307 -2.41364,-1.92565 0,-0.5107 0.7724,-0.54377 1.12008,-0.58778 0.90995,-0.1152 2.8546,0.13222 3.51216,-0.59843 0.47761,-0.53073 0.4069,-1.35772 -0.35286,-1.5025 -1.55557,-0.2964 -4.51409,-0.3939 -6.03316,0.0494 m -8.48073,2.64857 2.29966,0.28746 c 0.0719,1.67329 0.50119,3.37906 0.77815,5.03051 0.12447,0.7425 0.12073,1.74243 0.45275,2.42212 0.25742,0.52677 1.25418,0.60568 1.74171,0.36579 0.60179,-0.29623 0.33316,-1.80179 0.33316,-2.35672 0,-2.01379 -0.24793,-4.0408 -0.51398,-6.03662 -0.0946,-0.70958 0.0113,-1.68646 -0.78792,-2.00755 -1.45655,-0.58517 -3.75333,-0.29472 -5.30963,-0.29211 -0.62206,0.001 -1.36787,-0.0363 -1.72072,0.59055 -0.658,1.16895 -0.14776,3.82653 -0.14776,5.15861 v 3.59322 c 5.5e-4,0.38419 -0.0903,1.01386 0.25038,1.28954 0.43708,0.35357 1.57814,0.2166 1.8209,-0.30471 0.55019,-1.18145 0.32137,-3.14924 0.37772,-4.43432 0.0487,-1.10959 0.37786,-2.19374 0.42558,-3.30577 M 186.68716,186.49 c 1.32662,0.2463 4.27464,-0.0945 5.03052,1.14982 -1.29069,0.0554 -4.01895,-0.0201 -4.99775,0.90593 -0.95924,0.90779 -0.89658,4.00889 -0.89399,5.27442 0.001,0.54746 0.0618,1.11447 0.58943,1.41156 1.38842,0.7816 4.58036,0.17003 6.16468,0.16946 0.65167,-2.9e-4 1.42191,0.0684 1.88587,-0.48781 0.55436,-0.66461 0.41379,-1.72907 0.41379,-2.5305 0,-2.10132 0.38807,-5.08931 -0.95565,-6.89267 -0.97822,-1.3129 -3.36455,-0.86869 -4.7935,-0.86869 -0.52505,0 -1.22199,-0.10926 -1.69414,0.16946 -0.57851,0.3415 -0.71764,1.08828 -0.74926,1.69902 m 12.93561,0.71864 2.29966,0.28746 c 0.0719,1.67329 0.50119,3.37906 0.77815,5.03051 0.12447,0.7425 0.12073,1.74243 0.45275,2.42212 0.25741,0.52677 1.25418,0.60568 1.74171,0.36579 0.60179,-0.29623 0.33316,-1.80179 0.33316,-2.35672 0,-2.01379 -0.24794,-4.0408 -0.51398,-6.03662 -0.0946,-0.70958 0.0114,-1.68646 -0.78792,-2.00755 -1.45655,-0.58517 -3.75333,-0.29472 -5.30963,-0.29211 -0.62206,0.001 -1.36787,-0.0363 -1.72072,0.59055 -0.658,1.16895 -0.14776,3.82653 -0.14776,5.15861 v 3.59322 c 5.4e-4,0.38419 -0.0904,1.01386 0.25038,1.28954 0.43708,0.35357 1.57814,0.2166 1.8209,-0.30471 0.55019,-1.18145 0.32137,-3.1491 0.37772,-4.43432 0.0487,-1.10959 0.37786,-2.19374 0.42558,-3.30577 m 12.21696,-0.28746 c -0.87761,2.10779 -2.28471,4.00199 -3.54536,5.89289 -0.33417,0.50133 -1.34099,1.57599 -1.09593,2.23729 0.19949,0.53826 1.3292,0.34983 1.76671,0.34983 1.66525,0 4.63727,0.58153 6.15893,-0.0867 0.62867,-0.2761 0.44513,-1.43686 -0.0242,-1.79072 -0.45993,-0.34667 -1.14236,-0.25382 -1.67919,-0.29148 -0.6291,-0.044 -1.23477,-0.13036 -1.86847,-0.13079 0.78073,-1.81199 2.02399,-3.47034 3.01658,-5.17425 0.41509,-0.71236 0.97175,-1.72741 0.6337,-2.57924 -0.24304,-0.61217 -0.91498,-0.70903 -1.49435,-0.72441 -1.43513,-0.0381 -2.87616,-0.002 -4.31187,-0.002 -0.5249,0 -1.34042,-0.15066 -1.82277,0.0867 -0.56169,0.27641 -0.33834,1.32343 0.0481,1.65843 0.42098,0.36505 1.24828,0.3076 1.77462,0.36975 0.82199,0.097 1.63118,-0.009 2.44339,0.18476 m -56.77294,6.03662 c -0.6383,-0.1203 -1.72533,-0.0926 -2.22579,-0.53784 -0.79353,-0.70571 -1.16018,-4.24905 -0.4447,-5.03476 0.53367,-0.58606 2.73703,-1.07889 3.15873,-0.14374 0.35458,0.78658 0.14934,2.42753 0.0456,3.27295 -0.10046,0.8181 -0.21243,1.68306 -0.53381,2.44339 m 37.08208,-3.16204 c 1.4e-4,0.82601 0.47129,2.40416 -0.004,3.11633 -0.50118,0.75099 -3.05453,0.33316 -3.87666,0.33316 0,-0.80718 -0.18598,-1.97368 0.30758,-2.67422 0.64046,-0.90908 2.59862,-0.77527 3.5731,-0.77527 z"
       id="path16493" /><path
       style="fill:#000000;stroke-width:1"
       id="path16487"
       d="" /><path
       style="fill:#404040;stroke:none;stroke-width:1"
       d="m 103.3292,163.66404 c -1.45483,-1.6e-4 -4.439938,-0.8193 -5.53156,0.4639 -0.42903,0.50426 -0.3415,1.22231 -0.422278,1.83576 -0.254828,1.93517 -0.110384,4.10778 0.143733,6.03662 0.105641,0.8023 0.0201,1.82435 0.929495,2.19301 0.729277,0.29566 1.80581,0.10666 2.58094,0.10666 1.0291,0 2.95651,0.36363 3.81889,-0.3004 0.62162,-0.47847 0.5923,-1.72518 0.64908,-2.43046 0.16486,-2.05187 0.27509,-4.11927 0.27509,-6.18034 0,-1.34975 0.0622,-2.67587 0.12361,-4.01875 0.0193,-0.41804 0.12476,-1.14818 -0.21042,-1.46346 -0.48695,-0.45794 -1.83786,-0.51054 -2.12618,0.17999 -0.39238,0.94027 -0.2304,2.55958 -0.2304,3.57747 m 32.19529,6.75526 c 2.37512,-0.29191 2.36061,3.28665 3.93516,4.49254 0.63614,0.48724 1.97067,-0.0735 1.9997,-0.90492 0.0263,-0.75831 -0.82831,-1.79819 -1.1918,-2.43779 -0.40072,-0.70513 -0.82903,-1.41142 -1.14983,-2.15593 1.77189,-0.51167 2.29607,-2.22291 2.57548,-3.88068 0.21875,-1.29779 0.0516,-2.39697 -1.56665,-2.13465 -1.16133,0.18827 -0.73647,2.55458 -1.19611,3.426 -0.60137,1.13982 -2.28127,1.22132 -3.40595,1.4395 v -3.73696 c 0,-1.17269 0.62925,-3.52847 0.11527,-4.5665 -0.31089,-0.62823 -1.87883,-0.67862 -2.26718,-0.11423 -0.49199,0.71475 -0.14775,2.54031 -0.14775,3.38717 v 7.61764 c 0,0.84642 -0.29077,2.34911 0.0867,3.11633 0.27078,0.55034 1.75119,0.47057 2.06524,0 0.50779,-0.7609 0.14775,-2.65008 0.14775,-3.54752 m 29.46445,-6.75526 c -1.45497,-1.6e-4 -4.43993,-0.8193 -5.53156,0.4639 -0.42903,0.50426 -0.3415,1.22233 -0.42227,1.83576 -0.25483,1.93517 -0.11039,4.10778 0.14372,6.03662 0.10564,0.8023 0.0201,1.82435 0.9295,2.19301 0.72928,0.29566 1.80581,0.10666 2.58094,0.10666 1.0291,0 2.95651,0.36363 3.81888,-0.3004 0.62163,-0.47847 0.59231,-1.72518 0.64908,-2.43046 0.16486,-2.05187 0.2751,-4.11927 0.2751,-6.18034 0,-1.34975 0.0621,-2.67587 0.12361,-4.01875 0.0192,-0.41804 0.12475,-1.14818 -0.21042,-1.46346 -0.48696,-0.45794 -1.83787,-0.51054 -2.12619,0.17999 -0.39237,0.94027 -0.23039,2.55958 -0.23039,3.57747 m -36.07598,-0.57492 c 0.0681,-2.09401 2.57246,-0.29019 3.17584,-2.01442 0.74566,-2.13139 -2.8066,-1.43493 -4.03821,-1.31575 -0.56356,0.0545 -1.34545,-0.0651 -1.69902,0.49562 -0.42846,0.67968 -0.0122,1.648 -0.21516,2.38839 -0.23213,0.84697 -1.06791,1.08604 -0.77097,2.15539 0.20826,0.74996 0.942,0.97136 1.06259,1.884 0.28214,2.13797 0.0416,4.45517 0.0416,6.61153 0,0.73877 -0.42932,4.38259 0.72138,4.15176 1.82924,-0.36709 1.72202,-1.80553 1.72202,-3.28939 0,-2.49542 -0.36048,-5.29827 0.0308,-7.76125 0.18843,-1.18623 1.75464,-1.22651 1.60157,-2.70968 -0.0641,-0.62133 -1.17542,-0.57658 -1.63233,-0.5962 m 15.96182,-3.36721 c -1.00337,0.31076 -1.66122,3.86518 0.13583,3.36133 0.45921,-0.12875 1.03628,-0.28952 1.28953,-0.73195 0.6166,-1.07706 0.0412,-3.0836 -1.42536,-2.62938 m 70.99421,3.36721 c -0.91267,0.1029 -1.1254,0.70438 -0.98454,1.57825 0.12217,0.7582 0.98598,0.90333 1.10096,1.72763 0.25728,1.8481 0.0273,3.88287 0.0273,5.74905 0,0.59432 -0.22853,1.77218 0.45274,2.06926 0.42976,0.18743 1.66151,0.24722 1.90441,-0.24649 0.26878,-0.54674 0.0862,-1.51304 0.0862,-2.11023 0,-1.71929 -0.31189,-3.78726 0.0977,-5.46159 0.25152,-1.02793 1.99208,-1.52038 1.5264,-2.84186 -0.22709,-0.64529 -1.13115,-0.27879 -1.4761,-0.79716 -0.51742,-0.77449 0.19404,-2.10736 -0.43837,-2.86582 -0.37226,-0.44556 -1.68163,-0.19299 -1.98346,0.24298 -0.50018,0.72055 -0.31333,2.12331 -0.31333,2.95598 M 93.268339,159.86354 c -1.490041,0.39053 -1.006248,2.47013 -1.006248,3.65677 v 7.47391 c 0,0.77053 -0.292919,2.31231 0.147752,2.9726 0.338051,0.50665 1.752485,0.44355 2.274223,0.28746 0.556949,-0.16658 0.01825,-2.7343 0.02157,-3.40379 0.01364,-2.84828 0.263313,-5.6194 0.13798,-8.48001 -0.0503,-1.14548 0.07172,-2.93863 -1.575268,-2.50694 m -26.302549,10.2683 c -0.669615,-1.57656 -0.779341,-3.49526 -1.093935,-5.17424 -0.225179,-1.20179 -0.227623,-3.6058 -1.024397,-4.55364 -0.421257,-0.50109 -2.388143,-0.60874 -2.636811,0.13087 -0.273097,0.81228 0.374186,2.43117 0.526007,3.27294 0.431774,2.39395 0.867948,4.78732 1.270273,7.18645 0.148491,0.88551 0.127604,2.36319 0.679279,3.09965 0.471489,0.62954 3.460561,0.58973 4.091389,0.18039 0.756146,-0.49055 0.73703,-2.19058 0.890763,-2.99258 0.492154,-2.56758 0.586643,-5.64101 1.609301,-8.04883 0.725329,2.5811 0.965256,5.3986 1.376295,8.04883 0.119895,0.77311 0.0619,2.41263 0.812413,2.87055 0.70499,0.43018 3.662788,0.40848 4.144278,-0.3047 0.51096,-0.75702 0.53295,-2.11282 0.709738,-2.99704 0.431469,-2.1578 0.890686,-4.3097 1.322302,-6.46781 0.173339,-0.86714 0.27596,-1.7888 0.675097,-2.58712 0.188429,-0.3767 0.637868,-0.94569 0.415379,-1.3916 -0.674955,-1.3529 -2.870127,0.16508 -3.230168,0.96041 -1.172111,2.58983 -1.689823,6.51266 -1.913465,9.34239 -0.575489,-0.66159 -0.566434,-1.74444 -0.707146,-2.58712 l -0.909374,-5.31797 c -0.120873,-0.72538 -0.112106,-1.78972 -0.552348,-2.40337 -0.625119,-0.87158 -3.686636,-0.72383 -4.286186,0.13641 -0.543656,0.78008 -0.568118,2.07538 -0.761665,2.9856 -0.467463,2.19835 -0.844148,4.43591 -1.407019,6.61153 m 56.477001,-6.9194 c -0.88739,-0.13788 -4.20034,-0.27307 -4.77871,0.49729 -0.28731,0.38268 -0.1019,1.08789 -0.0998,1.53533 0.006,1.29349 1.5e-4,2.58712 1.5e-4,3.88068 v 3.88069 c 10e-4,0.53165 -0.0736,1.16032 0.58339,1.27228 1.72619,0.29393 1.63852,-0.81149 1.72921,-2.13466 0.10636,-1.55443 -0.18584,-4.52387 0.566,-5.87781 0.51513,-0.92781 1.90585,-0.58798 2.43535,-1.37041 0.32971,-0.4872 0.24103,-1.57825 -0.43565,-1.68339 m 22.42747,-0.0261 c -0.64103,0.0472 -1.66998,0.47988 -1.98374,1.06044 -0.35645,0.65949 -0.16946,1.70936 -0.16946,2.43552 v 5.03051 c 0,0.62638 -0.16831,1.5507 0.0867,2.13467 0.23658,0.54171 1.00064,0.48753 1.49363,0.44397 1.1336,-0.0999 1.00683,-1.28493 1.00683,-2.14745 1.4e-4,-2.20178 -0.0599,-4.5736 0.22651,-6.75526 0.0812,-0.61848 0.35501,-2.27707 -0.66043,-2.2024 m 39.95092,0.0261 c -0.88739,-0.13788 -4.20034,-0.27308 -4.77871,0.49729 -0.28732,0.38268 -0.1019,1.08789 -0.0997,1.53533 0.006,1.29349 1.4e-4,2.58712 1.4e-4,3.88068 v 3.88069 c 0.001,0.53165 -0.0736,1.16032 0.58339,1.27228 1.72619,0.29393 1.63852,-0.81149 1.72906,-2.13466 0.10651,-1.55443 -0.1857,-4.52387 0.56615,-5.87781 0.51511,-0.9278 1.90585,-0.588 2.43535,-1.37041 0.32971,-0.48721 0.24102,-1.57825 -0.43565,-1.68339 m 27.59581,0 c -0.88681,-0.13788 -4.19976,-0.27308 -4.77899,0.49729 -0.28745,0.38268 -0.10204,1.08789 -0.0992,1.53533 0.006,1.29349 0,2.58712 0,3.88068 v 3.88069 c 0.002,0.53165 -0.0733,1.16032 0.58354,1.27228 1.72619,0.29393 1.63851,-0.81149 1.72906,-2.13466 0.10636,-1.55443 -0.1854,-4.52387 0.5663,-5.87781 0.51455,-0.9278 1.90584,-0.588 2.43476,-1.37041 0.33058,-0.48719 0.24147,-1.57825 -0.4355,-1.68339 m -101.60776,0.22514 c -0.95838,0.12583 -2.68054,-0.15988 -3.36283,0.69767 -0.41178,0.51762 -0.23039,1.497 -0.23039,2.11591 0,1.83485 0.1305,3.64223 0.37024,5.4617 0.0839,0.63701 -0.0461,1.70175 0.45448,2.19302 0.38246,0.37513 1.13301,0.25037 1.61867,0.25037 1.51591,1.5e-4 3.41284,0.35574 4.88046,0.10881 1.29773,-0.21833 1.01243,-3.97698 1.01243,-4.99559 0,-1.33524 0.53884,-4.21494 -0.38132,-5.27794 -0.79568,-0.91929 -3.2717,-0.69706 -4.36174,-0.55395 m 60.65363,7.12545 c 1.71986,0 4.874,0.18627 6.29131,-0.96341 1.19051,-0.96572 0.41409,-5.21626 -0.83578,-5.91195 -1.47769,-0.82249 -4.28184,-0.34483 -5.88672,-0.14495 -0.60122,0.0749 -1.49334,0.16772 -1.92554,0.64577 -0.43463,0.48083 -0.36607,1.86672 -0.37355,2.49386 -0.0241,2.03002 -0.59101,5.53615 0.91786,7.16518 0.518,0.5591 1.26136,0.45246 1.95615,0.45246 1.7108,0 3.94853,0.38562 5.60285,-0.0457 0.66072,-0.17233 1.18835,-1.28307 0.71721,-1.87983 -0.33532,-0.42472 -1.38871,-0.2304 -1.86446,-0.2304 -1.61983,0 -3.88298,0.22839 -4.59933,-1.58102 m 21.12817,3.59323 c -0.0201,1.69902 -1.71915,1.39474 -3.01831,1.18518 -0.45246,-0.073 -1.27488,-0.33618 -1.46977,0.27352 -0.30284,0.94746 0.57779,1.43858 1.32604,1.60776 1.31152,0.29636 4.18179,0.75357 5.20241,-0.39224 0.941,-1.05641 0.40302,-3.9205 0.40302,-5.26135 0,-1.87796 -0.003,-3.7358 -0.13093,-5.60543 -0.0414,-0.60527 0.18569,-1.57027 -0.36264,-1.99934 -0.83549,-0.65382 -2.93997,-0.43245 -3.96203,-0.44461 -0.78059,-0.009 -1.68177,-0.32817 -2.43002,0.002 -0.88049,0.3884 -0.93123,1.46594 -1.00869,2.29833 -0.1742,1.87207 -0.30126,3.72273 -0.29824,5.60543 0.001,0.77427 -0.005,1.81055 0.61501,2.38116 1.17413,1.08055 3.71583,0.35357 5.13415,0.34969 m 30.47054,-3.59323 c 1.72043,0 4.87385,0.18628 6.29102,-0.96341 1.19007,-0.96586 0.41393,-5.21624 -0.83507,-5.91195 -1.47753,-0.82249 -4.28168,-0.34483 -5.88714,-0.14495 -0.60079,0.0749 -1.49334,0.1677 -1.92597,0.64578 -0.43406,0.48084 -0.36507,1.86672 -0.37369,2.49385 -0.023,2.02989 -0.59073,5.53615 0.91842,7.16518 0.51742,0.55911 1.26195,0.45246 1.95616,0.45246 1.71038,0 3.94823,0.38563 5.60255,-0.0457 0.66115,-0.17232 1.18864,-1.28306 0.71721,-1.87982 -0.33489,-0.42473 -1.38842,-0.2304 -1.86416,-0.2304 -1.61983,0 -3.88356,0.22838 -4.59933,-1.58102 M 82.057321,165.3891 c 1.326622,0.2463 4.274642,-0.0944 5.030516,1.14984 -1.290687,0.0554 -4.019097,-0.02 -4.997743,0.90592 -0.959248,0.90765 -0.896581,4.00889 -0.893995,5.27442 0.0011,0.54747 0.0618,1.11448 0.589434,1.41156 1.38842,0.7816 4.580354,0.17004 6.164678,0.16946 0.651667,-2.9e-4 1.421909,0.0684 1.885869,-0.48782 0.554217,-0.6646 0.413793,-1.72906 0.413793,-2.53049 0,-2.10132 0.388071,-5.08931 -0.955652,-6.89266 -0.978222,-1.31291 -3.364551,-0.8687 -4.793506,-0.8687 -0.52504,0 -1.221985,-0.10927 -1.694136,0.16945 -0.578652,0.34152 -0.717637,1.08829 -0.749258,1.69902 m 69.277379,0.71865 2.29966,0.28745 c 0.0719,1.6733 0.50118,3.37908 0.77815,5.03052 0.12447,0.74251 0.12073,1.74243 0.45274,2.42212 0.25742,0.52677 1.25418,0.60567 1.74171,0.36579 0.60179,-0.29622 0.33316,-1.80178 0.33316,-2.35672 0,-2.01379 -0.24793,-4.0408 -0.51397,-6.03662 -0.0946,-0.70957 0.0113,-1.68646 -0.78792,-2.00755 -1.45655,-0.58518 -3.75334,-0.29471 -5.30964,-0.29211 -0.62205,10e-4 -1.36787,-0.0363 -1.72072,0.59055 -0.65799,1.16895 -0.14775,3.82652 -0.14775,5.15861 v 3.59322 c 5.4e-4,0.38419 -0.0903,1.01387 0.25037,1.28954 0.43708,0.35357 1.57815,0.21659 1.82091,-0.30471 0.55019,-1.18145 0.32137,-3.14925 0.37771,-4.43433 0.0487,-1.10958 0.37787,-2.19373 0.42559,-3.30576 m 47.1431,-0.71865 c 1.32662,0.24631 4.2745,-0.0944 5.03051,1.14984 -1.29068,0.0554 -4.01909,-0.0201 -4.99774,0.90592 -0.95925,0.90779 -0.89658,4.00889 -0.89399,5.27442 0.001,0.54747 0.0618,1.11448 0.58943,1.41156 1.38843,0.7816 4.58079,0.17004 6.16468,0.16946 0.65109,-2.9e-4 1.42148,0.0684 1.88573,-0.48782 0.55479,-0.6646 0.41394,-1.72906 0.41394,-2.53049 0,-2.10132 0.38806,-5.0893 -0.9558,-6.89266 -0.97736,-1.31291 -3.36441,-0.8687 -4.79337,-0.8687 -0.52504,0 -1.22198,-0.10927 -1.69413,0.16945 -0.57865,0.34152 -0.71763,1.08829 -0.74926,1.69902 m 36.93835,0.71865 2.29966,0.28745 c 0.0719,1.6733 0.50161,3.37908 0.77757,5.03052 0.12505,0.74251 0.12074,1.74243 0.45275,2.42212 0.25727,0.52677 1.25475,0.60567 1.742,0.36579 0.60222,-0.29622 0.33345,-1.80178 0.33345,-2.35672 0,-2.01379 -0.24722,-4.0408 -0.51455,-6.03662 -0.0934,-0.70957 0.0115,-1.68646 -0.78764,-2.00755 -1.45597,-0.58518 -3.75276,-0.29471 -5.30934,-0.29211 -0.62235,10e-4 -1.3683,-0.0363 -1.72044,0.59055 -0.65828,1.16894 -0.14804,3.82652 -0.14804,5.15861 v 3.59322 c 0,0.38419 -0.0906,1.01387 0.25009,1.28954 0.43693,0.35357 1.57814,0.21659 1.82104,-0.30471 0.55049,-1.18145 0.32196,-3.1491 0.37801,-4.43433 0.0488,-1.10958 0.37801,-2.19373 0.42544,-3.30576 m -60.07873,-0.6754 c 1.16938,-0.10333 2.04713,1.36379 1.29227,2.34352 -0.51585,0.66934 -1.81214,0.70944 -2.58583,0.76233 -1.47423,0.10119 -2.67911,-0.91267 -1.27445,-2.25446 0.65814,-0.62865 1.69744,-0.77446 2.56801,-0.85139 m 51.5987,0 c 1.16996,-0.10333 2.0467,1.36379 1.29213,2.34352 -0.51599,0.66949 -1.81242,0.70944 -2.58569,0.76233 -1.47466,0.10119 -2.67911,-0.91267 -1.27488,-2.25446 0.65829,-0.62867 1.69744,-0.77446 2.56844,-0.85139 m -113.25844,6.42424 c -0.63829,-0.1203 -1.72531,-0.0926 -2.22578,-0.53783 -0.79353,-0.70571 -1.16018,-4.24906 -0.44469,-5.03477 0.53366,-0.58606 2.73703,-1.07889 3.15872,-0.14373 0.35458,0.78657 0.14934,2.42752 0.0456,3.27294 -0.10047,0.8181 -0.21243,1.68306 -0.53381,2.44339 m -10.92341,-0.28746 c -0.59863,0.0756 -1.97053,0.52792 -2.48248,0.13913 -0.333171,-0.25281 -0.397848,-0.90793 -0.469711,-1.28896 -0.187137,-0.99202 -0.692056,-3.52179 0.0687,-4.34891 0.599491,-0.65169 2.740911,-0.27692 3.119641,0.48387 0.28646,0.57552 0.0734,1.64903 0.0457,2.28402 -0.04,0.9121 -0.20999,1.82105 -0.28186,2.73085 m 61.65974,0 c -0.59863,0.0756 -1.97052,0.52792 -2.48249,0.13913 -0.33316,-0.25296 -0.39784,-0.90793 -0.4697,-1.28896 -0.18714,-0.99202 -0.69206,-3.52179 0.0687,-4.34891 0.59949,-0.65168 2.74091,-0.27692 3.11964,0.48387 0.28645,0.57552 0.0734,1.64903 0.0457,2.28402 -0.04,0.9121 -0.20999,1.82105 -0.28186,2.73085 m 26.50794,-5.51859 c 0.31951,-0.15737 0.75846,-0.0577 1.08803,0.009 1.91706,0.3864 1.43729,2.18898 1.43729,3.78509 0,0.61128 0.19288,1.57412 -0.45246,1.91835 -0.29206,0.1558 -0.65986,0.20064 -0.98483,0.22465 -2.4891,0.18339 -2.07746,-1.86618 -1.84605,-3.72402 0.0707,-0.56788 0.17549,-1.92588 0.75802,-2.21282 M 87.519022,168.6948 c 1.41e-4,0.82601 0.471288,2.40415 -0.0038,3.11633 -0.501181,0.75098 -3.054525,0.33316 -3.876657,0.33316 0,-0.80718 -0.185985,-1.97369 0.307581,-2.67422 0.640455,-0.90908 2.598617,-0.77527 3.573102,-0.77527 m 116.420482,0 c 0,0.82601 0.47143,2.40415 -0.004,3.11633 -0.50017,0.75098 -3.05424,0.33316 -3.87637,0.33316 0,-0.80718 -0.18598,-1.97369 0.30758,-2.67422 0.64046,-0.90908 2.59862,-0.77527 3.5731,-0.77527 z"
       id="path16507" /><path
       style="fill:#3f3f3f;stroke:none;stroke-width:1"
       d="m 111.01102,139.01102 c -1.00337,0.31076 -1.66122,3.86517 0.13582,3.36133 0.45922,-0.12875 1.03629,-0.28953 1.28954,-0.73195 0.6166,-1.07707 0.0412,-3.08361 -1.42536,-2.62938 m -25.591656,6.38552 c 0,-0.93664 -0.222278,-3.28903 0.614945,-3.88955 1.379222,-0.9893 4.470644,0.29137 5.222373,-1.57215 0.438461,-1.08691 -1.01708,-0.86238 -1.669181,-0.86238 h -4.743056 c -0.619068,0 -1.558124,-0.17303 -2.132419,0.0867 -0.581943,0.26323 -0.167243,2.45023 -0.167243,3.07531 v 8.62374 c 0,0.72367 -0.335133,2.4329 0.58334,2.68514 3.612224,0.99202 1.273895,-4.0382 2.665422,-5.45508 0.70304,-0.71592 2.102497,-0.37025 2.899314,-0.94646 0.452362,-0.32713 0.931337,-1.4686 0.154712,-1.69961 -0.993254,-0.29545 -2.392728,-0.0457 -3.428207,-0.0457 m 11.489835,-2.89499 c -0.887384,-0.13788 -4.200334,-0.27308 -4.778714,0.49729 -0.287286,0.38268 -0.101833,1.08788 -0.0997,1.53533 0.0061,1.29349 1.14e-4,2.58712 1.14e-4,3.88068 v 3.88069 c 0.0011,0.53165 -0.07363,1.16032 0.583394,1.27228 1.726187,0.29393 1.638511,-0.81149 1.729202,-2.13466 0.106364,-1.55443 -0.185838,-4.52387 0.566006,-5.87781 0.515126,-0.9278 1.905848,-0.58798 2.435343,-1.37041 0.329718,-0.4872 0.241036,-1.57825 -0.435641,-1.68339 m 15.097287,-0.0261 c -0.64103,0.0471 -1.66999,0.47988 -1.98374,1.06044 -0.35645,0.6595 -0.16946,1.70936 -0.16946,2.43552 v 5.03052 c 0,0.62637 -0.16831,1.55069 0.0867,2.13466 0.23657,0.54172 1.00063,0.48753 1.49363,0.44398 1.13358,-0.0999 1.00682,-1.28494 1.00682,-2.14745 1.4e-4,-2.20179 -0.0599,-4.57361 0.22651,-6.75527 0.0812,-0.61848 0.35502,-2.27707 -0.66043,-2.2024 m 18.53528,0.0261 c -0.88738,-0.13788 -4.20033,-0.27307 -4.7787,0.49729 -0.28732,0.38268 -0.10191,1.08788 -0.0998,1.53533 0.006,1.29349 1.4e-4,2.58712 1.4e-4,3.88068 v 3.88069 c 0.001,0.53165 -0.0736,1.16032 0.5834,1.27228 1.72618,0.29393 1.63851,-0.81149 1.7292,-2.13466 0.10636,-1.55443 -0.18584,-4.52387 0.566,-5.87781 0.51513,-0.92781 1.90585,-0.58798 2.43535,-1.37041 0.32972,-0.4872 0.24103,-1.57825 -0.43564,-1.68339 m -29.02476,7.35059 c 1.71985,0 4.87398,0.18627 6.2913,-0.96341 1.1905,-0.96572 0.41394,-5.21626 -0.83579,-5.91195 -1.47767,-0.82249 -4.28182,-0.34483 -5.8867,-0.14495 -0.60122,0.0749 -1.493344,0.1677 -1.925536,0.64577 -0.434636,0.48085 -0.366081,1.86673 -0.373556,2.49386 -0.02412,2.03003 -0.59101,5.53615 0.917854,7.16518 0.517998,0.5591 1.261368,0.45246 1.956148,0.45246 1.71081,0 3.94853,0.38562 5.6027,-0.0457 0.66087,-0.17233 1.18849,-1.28306 0.71735,-1.87983 -0.33532,-0.42472 -1.38871,-0.2304 -1.86445,-0.2304 -1.61983,0 -3.88298,0.22839 -4.59932,-1.58102 m 15.66645,0 c 1.71986,0 4.87399,0.18628 6.2913,-0.96341 1.19051,-0.96572 0.41393,-5.21626 -0.83579,-5.91195 -1.47767,-0.82249 -4.28182,-0.34483 -5.8867,-0.14495 -0.60121,0.0749 -1.49334,0.1677 -1.92553,0.64578 -0.43464,0.48084 -0.36608,1.86672 -0.37355,2.49385 -0.0241,2.03003 -0.59102,5.53615 0.91785,7.16518 0.518,0.5591 1.26137,0.45246 1.95615,0.45246 1.7108,0 3.94851,0.38562 5.60269,-0.0457 0.66087,-0.17233 1.1885,-1.28307 0.71735,-1.87983 -0.33532,-0.42472 -1.38871,-0.2304 -1.86445,-0.2304 -1.61983,0 -3.88298,0.22839 -4.59932,-1.58102 m -12.79188,-5.13099 c 1.16938,-0.10333 2.04713,1.36377 1.29227,2.34351 -0.51585,0.66949 -1.81213,0.70945 -2.58582,0.76234 -1.47424,0.10119 -2.67912,-0.91267 -1.27445,-2.25446 0.65813,-0.62867 1.69744,-0.77447 2.568,-0.85139 m 15.66645,0 c 1.16938,-0.10333 2.04713,1.36379 1.29227,2.34351 -0.51584,0.66949 -1.81214,0.70945 -2.58583,0.76234 -1.47422,0.10119 -2.6791,-0.91267 -1.27443,-2.25446 0.65813,-0.62865 1.69743,-0.77447 2.56799,-0.85139 z"
       id="path16521" /><g
       id="g21"
       style="display:inline;stroke-width:2.96199"
       transform="matrix(0.95072287,0,0,0.94572352,-240.06897,56.539071)"><path
         style="font-variation-settings:normal;opacity:1;fill:none;fill-opacity:1;stroke:url(#linearGradient16);stroke-width:2.96199;stroke-linecap:butt;stroke-linejoin:miter;stroke-miterlimit:4;stroke-dasharray:none;stroke-dashoffset:0;stop-color:#000000;stop-opacity:1"
         d="M 316.556,150.51048 301.78996,121.5351 300.2701,118.55267"
         id="path2-8-1"
         sodipodi:nodetypes="ccc" /><path
         style="font-variation-settings:normal;opacity:1;fill:none;fill-opacity:1;stroke:url(#linearGradient12-1-9);stroke-width:4.44298;stroke-linecap:butt;stroke-linejoin:miter;stroke-miterlimit:4;stroke-dasharray:none;stroke-dashoffset:0;stop-color:#000000;stop-opacity:1"
         d="m 301.02497,120.03044 13.5963,-35.030237"
         id="path3-7-9"
         sodipodi:nodetypes="cc" /><path
         style="font-variation-settings:normal;opacity:1;fill:none;fill-opacity:1;stroke:url(#linearGradient10-0-8);stroke-width:5.92399;stroke-linecap:butt;stroke-linejoin:miter;stroke-miterlimit:4;stroke-dasharray:none;stroke-dashoffset:0;stop-color:#000000;stop-opacity:1"
         d="M 313.80587,86.88123 350.92209,69.388088"
         id="path4-9-4"
         sodipodi:nodetypes="cc" /><path
         style="font-variation-settings:normal;opacity:1;fill:none;fill-opacity:1;stroke:url(#linearGradient8-6-3);stroke-width:7.40497;stroke-linecap:butt;stroke-linejoin:miter;stroke-miterlimit:4;stroke-dasharray:none;stroke-dashoffset:0;stop-color:#000000;stop-opacity:1"
         d="m 348.57806,70.248629 38.31281,11.716917"
         id="path5-2-7"
         sodipodi:nodetypes="cc" /></g></g></svg>
