<?xml version="1.0" encoding="UTF-8" standalone="no"?>
<!-- Created with Inkscape (http://www.inkscape.org/) -->

<svg
   width="558.25781mm"
   height="79.889908mm"
   viewBox="0 0 558.2578 79.889908"
   version="1.1"
   id="svg5"
   xml:space="preserve"
   inkscape:version="1.4.1 (93de688d07, 2025-03-30)"
   sodipodi:docname="logo-long.svg"
   inkscape:export-filename="logo-long.png"
   inkscape:export-xdpi="60"
   inkscape:export-ydpi="60"
   xmlns:inkscape="http://www.inkscape.org/namespaces/inkscape"
   xmlns:sodipodi="http://sodipodi.sourceforge.net/DTD/sodipodi-0.dtd"
   xmlns:xlink="http://www.w3.org/1999/xlink"
   xmlns="http://www.w3.org/2000/svg"
   xmlns:svg="http://www.w3.org/2000/svg"><sodipodi:namedview
     id="namedview7"
     pagecolor="#ffffff"
     bordercolor="#000000"
     borderopacity="0.25"
     inkscape:showpageshadow="2"
     inkscape:pageopacity="0.0"
     inkscape:pagecheckerboard="0"
     inkscape:deskcolor="#d1d1d1"
     inkscape:document-units="mm"
     showgrid="false"
     showguides="false"
     inkscape:zoom="0.26906914"
     inkscape:cx="728.43732"
     inkscape:cy="33.448652"
     inkscape:window-width="1920"
     inkscape:window-height="1002"
     inkscape:window-x="0"
     inkscape:window-y="26"
     inkscape:window-maximized="1"
     inkscape:current-layer="layer1"><sodipodi:guide
       position="-2.4146629,305.98268"
       orientation="0,-1"
       id="guide4839"
       inkscape:locked="false" /><sodipodi:guide
       position="29.023336,324.33096"
       orientation="0,-1"
       id="guide4841"
       inkscape:locked="false" /><sodipodi:guide
       position="32.016857,298.61498"
       orientation="1,0"
       id="guide19473"
       inkscape:locked="false" /></sodipodi:namedview><defs
     id="defs2"><inkscape:path-effect
       effect="bspline"
       id="path-effect4849"
       is_visible="true"
       lpeversion="1"
       weight="33.333333"
       steps="2"
       helper_size="0"
       apply_no_weight="true"
       apply_with_weight="true"
       only_selected="false" /><inkscape:path-effect
       effect="bspline"
       id="path-effect4845"
       is_visible="true"
       lpeversion="1"
       weight="33.333333"
       steps="2"
       helper_size="0"
       apply_no_weight="true"
       apply_with_weight="true"
       only_selected="false" /><inkscape:path-effect
       effect="bspline"
       id="path-effect4837"
       is_visible="true"
       lpeversion="1"
       weight="33.333333"
       steps="2"
       helper_size="0"
       apply_no_weight="true"
       apply_with_weight="true"
       only_selected="false" /><inkscape:path-effect
       effect="bspline"
       id="path-effect4833"
       is_visible="true"
       lpeversion="1"
       weight="33.333333"
       steps="2"
       helper_size="0"
       apply_no_weight="true"
       apply_with_weight="true"
       only_selected="false" /><inkscape:path-effect
       effect="bspline"
       id="path-effect4829"
       is_visible="true"
       lpeversion="1"
       weight="33.333333"
       steps="2"
       helper_size="0"
       apply_no_weight="true"
       apply_with_weight="true"
       only_selected="false" /><linearGradient
       id="linearGradient5"
       inkscape:collect="always"><stop
         style="stop-color:#fdb03e;stop-opacity:0.99607843;"
         offset="0.05055023"
         id="stop8" /><stop
         style="stop-color:#fa7054;stop-opacity:0.99607843;"
         offset="1"
         id="stop7" /></linearGradient><linearGradient
       inkscape:collect="always"
       xlink:href="#linearGradient19"
       id="linearGradient16"
       gradientUnits="userSpaceOnUse"
       gradientTransform="translate(0.08616094,-0.07061622)"
       x1="301.00522"
       y1="120.23491"
       x2="314.73239"
       y2="147.21802" /><linearGradient
       id="linearGradient19"
       inkscape:collect="always"><stop
         style="stop-color:#61ab6f;stop-opacity:1;"
         offset="0"
         id="stop18" /><stop
         style="stop-color:#519db9;stop-opacity:0.99215686;"
         offset="1"
         id="stop19" /></linearGradient><linearGradient
       inkscape:collect="always"
       xlink:href="#linearGradient17"
       id="linearGradient12-1-9"
       x1="301.129"
       y1="119.7624"
       x2="313.3761"
       y2="87.784172"
       gradientUnits="userSpaceOnUse" /><linearGradient
       id="linearGradient17"
       inkscape:collect="always"><stop
         style="stop-color:#61ab6f;stop-opacity:1;"
         offset="0"
         id="stop16" /><stop
         style="stop-color:#efd940;stop-opacity:0.99607843;"
         offset="1"
         id="stop17" /></linearGradient><linearGradient
       inkscape:collect="always"
       xlink:href="#linearGradient21"
       id="linearGradient10-0-8"
       x1="314.60013"
       y1="86.584328"
       x2="348.37427"
       y2="70.575928"
       gradientUnits="userSpaceOnUse" /><linearGradient
       id="linearGradient21"
       inkscape:collect="always"><stop
         style="stop-color:#efd941;stop-opacity:1;"
         offset="0"
         id="stop20" /><stop
         style="stop-color:#feb13e;stop-opacity:0.99607843;"
         offset="1"
         id="stop21" /></linearGradient><linearGradient
       inkscape:collect="always"
       xlink:href="#linearGradient5"
       id="linearGradient8-6-3"
       x1="349.55136"
       y1="70.887932"
       x2="385.95181"
       y2="81.866165"
       gradientUnits="userSpaceOnUse"
       spreadMethod="pad" /></defs><g
     inkscape:label="Ebene 1"
     inkscape:groupmode="layer"
     id="layer1"
     transform="translate(-99.586166,-180.57939)"><path
       style="fill:#8d5f98;stroke:none;stroke-width:0.999999"
       d="m 527.67664,217.56416 c 1.01922,2.02772 0.72094,4.26922 0.72094,6.48845 v 11.77534 c 0,1.65768 -0.39633,3.89931 0.0764,5.49163 0.32525,1.09559 3.62019,1.18307 4.10423,0.19945 0.99002,-2.01188 0.14496,-6.32887 0.14496,-8.57484 0.74173,-0.015 1.8847,-0.37079 2.54963,0.0167 0.80053,0.46599 1.19123,1.82448 1.5355,2.62735 0.92247,2.15128 1.87571,6.16283 3.87041,7.54488 1.24011,0.85911 3.96433,-0.39003 3.65329,-2.01863 -0.64678,-3.38649 -3.08803,-6.89579 -4.39944,-10.0922 3.41466,-1.43249 3.83653,-5.81272 4.06382,-9.1319 0.17048,-2.48945 0.005,-4.62114 -3.09792,-4.03044 -1.85875,0.35393 -0.99875,4.41211 -1.3143,5.95294 -0.77975,3.80734 -3.13833,4.96975 -6.86099,5.04658 l 0.24978,-8.17065 -0.15466,-2.73875 -5.1417,-0.38531 m 71.85363,5.76752 c -1.52647,0.17203 -1.88286,1.1777 -1.64662,2.6388 0.20498,1.2677 1.64951,1.51037 1.84153,2.88859 0.43063,3.08999 0.0455,6.4921 0.0455,9.61233 0,0.99369 -0.38114,2.96306 0.75651,3.45979 0.7178,0.31337 2.77752,0.41333 3.1839,-0.41214 0.44962,-0.91414 0.14496,-2.52977 0.14496,-3.52828 0,-2.87462 -0.52052,-6.33225 0.16436,-9.1317 0.42079,-1.7187 3.33073,-2.54204 2.55189,-4.75157 -0.38018,-1.0789 -1.89127,-0.46613 -2.46923,-1.33286 -0.86368,-1.29494 0.32539,-3.52343 -0.73343,-4.7916 -0.62193,-0.74493 -2.81046,-0.32269 -3.31584,0.40626 -0.83532,1.20479 -0.5234,3.55013 -0.5234,4.94238 m -45.89981,0.58261 c -1.6024,0.2104 -4.48161,-0.26732 -5.62261,1.16651 -0.68849,0.86544 -0.38521,2.50295 -0.38521,3.53776 0,3.06783 0.21819,6.08978 0.61904,9.13189 0.14028,1.06508 -0.0771,2.84533 0.75986,3.66671 0.63947,0.62723 1.8944,0.41863 2.70642,0.41863 2.53456,2.3e-4 5.70622,0.59478 8.16007,0.18191 2.16979,-0.36504 1.69277,-6.64946 1.69277,-8.35256 0,-2.23251 0.90092,-7.04732 -0.63756,-8.82466 -1.33037,-1.53704 -5.4705,-1.16547 -7.29278,-0.92619 m 30.28065,0.0356 c -1.72641,0.50385 -1.68292,2.22657 -1.6834,3.70742 -4.7e-4,1.02885 -0.22684,2.4053 0.28333,3.34205 1.01028,1.85472 4.45852,3.08344 6.20513,4.18431 0.82812,0.52173 2.66243,1.31885 2.58192,2.5322 -0.0617,0.9324 -1.48128,0.73654 -2.10129,0.7649 -1.4527,0.0669 -5.53225,-0.24679 -6.45482,1.0283 -0.49913,0.6897 -0.68032,2.01671 0.24248,2.42211 0.79977,0.3511 1.9934,0.14496 2.84795,0.14496 2.35627,0 6.45481,0.79831 8.6157,-0.14496 1.13766,-0.49671 0.75651,-2.46608 0.75651,-3.45977 0,-3.81545 -1.20684,-4.80988 -4.32563,-6.88906 -0.86704,-0.57796 -4.03558,-2.04496 -4.03558,-3.21967 0,-0.85388 1.29145,-0.90917 1.87276,-0.98276 1.52143,-0.19261 4.77286,0.22107 5.87229,-1.00057 0.79856,-0.88737 0.68033,-2.27009 -0.58998,-2.51216 -2.60089,-0.49557 -7.5475,-0.65859 -10.08737,0.0826 m -14.17967,4.42838 3.845,0.48063 c 0.12022,2.79772 0.83798,5.64974 1.30106,8.41095 0.20811,1.24145 0.20186,2.91332 0.75699,4.04975 0.4304,0.88076 2.09697,1.01269 2.91212,0.6116 1.00618,-0.49529 0.55704,-3.01257 0.55704,-3.94041 0,-3.36703 -0.41454,-6.75617 -0.85937,-10.09315 -0.15817,-1.18641 0.0189,-2.81974 -1.31739,-3.3566 -2.43534,-0.9784 -6.27553,-0.49277 -8.87764,-0.48841 -1.04008,0.002 -2.28706,-0.0607 -2.87702,0.9874 -1.10017,1.95447 -0.24706,6.39791 -0.24706,8.62513 v 6.00782 c 9.2e-4,0.64236 -0.15098,1.69516 0.41863,2.15609 0.7308,0.59117 2.63864,0.36216 3.04453,-0.50947 0.91991,-1.97537 0.53732,-5.26549 0.63154,-7.41413 0.0814,-1.85522 0.63178,-3.6679 0.71157,-5.5272 m 39.89197,-1.20156 c 2.21809,0.41181 7.14715,-0.158 8.41097,1.92248 -2.15802,0.0926 -6.71964,-0.0336 -8.35618,1.51471 -1.60384,1.51781 -1.49907,6.70281 -1.49474,8.81876 0.002,0.91535 0.10333,1.86338 0.98552,2.36012 2.32142,1.30682 7.65831,0.28428 10.30727,0.28333 1.08959,-4.8e-4 2.37742,0.11436 3.15315,-0.81561 0.92689,-1.11122 0.69186,-2.89099 0.69186,-4.23097 0,-3.51338 0.64884,-8.50926 -1.59784,-11.52446 -1.63557,-2.19515 -5.62549,-1.45244 -8.01467,-1.45244 -0.87788,0 -2.04316,-0.18268 -2.83258,0.28334 -0.96727,0.57098 -1.19989,1.81959 -1.25276,2.84074 m 21.62818,1.20156 3.84501,0.48063 c 0.12021,2.79772 0.83798,5.64974 1.30106,8.41095 0.20811,1.24145 0.20186,2.91332 0.75699,4.04975 0.43038,0.88076 2.09697,1.01269 2.91212,0.6116 1.00618,-0.49529 0.55704,-3.01257 0.55704,-3.94041 0,-3.36703 -0.41456,-6.75617 -0.85937,-10.09315 -0.15817,-1.18641 0.0191,-2.81974 -1.31739,-3.3566 -2.43534,-0.9784 -6.27553,-0.49277 -8.87764,-0.48841 -1.04008,0.002 -2.28706,-0.0607 -2.87703,0.9874 -1.10016,1.95447 -0.24705,6.39791 -0.24705,8.62513 v 6.00782 c 9e-4,0.64236 -0.15115,1.69516 0.41863,2.15609 0.7308,0.59117 2.63864,0.36216 3.04453,-0.50947 0.91991,-1.97537 0.53732,-5.26525 0.63154,-7.41413 0.0814,-1.85522 0.63178,-3.6679 0.71156,-5.5272 m 20.42661,-0.48063 c -1.46735,3.5242 -3.82,6.69128 -5.92779,9.85284 -0.55873,0.83821 -2.24212,2.63503 -1.83239,3.74072 0.33355,0.89996 2.22241,0.58491 2.95392,0.58491 2.78428,0 7.75346,0.97231 10.29766,-0.14496 1.05113,-0.46164 0.74425,-2.40241 -0.0405,-2.99406 -0.769,-0.57963 -1.91002,-0.42439 -2.80759,-0.48735 -1.05185,-0.0736 -2.06452,-0.21796 -3.12406,-0.21868 1.30537,-3.02963 3.38409,-5.80237 5.04369,-8.65129 0.69402,-1.19105 1.62475,-2.88821 1.05954,-4.31245 -0.40636,-1.02355 -1.52984,-1.18549 -2.49854,-1.21121 -2.39952,-0.0637 -4.8089,-0.003 -7.20939,-0.003 -0.87763,0 -2.24117,-0.25191 -3.04765,0.14496 -0.93914,0.46215 -0.5657,2.21276 0.0804,2.77287 0.70387,0.61036 2.08711,0.51431 2.96714,0.61822 1.37436,0.16218 2.72732,-0.015 4.08532,0.30892 m -94.92367,10.09315 c -1.06723,-0.20114 -2.88473,-0.15482 -3.72149,-0.89926 -1.32677,-1.17994 -1.93981,-7.10436 -0.74354,-8.41806 0.89229,-0.97988 4.57629,-1.80389 5.28136,-0.24033 0.59286,1.31515 0.2497,4.0588 0.0763,5.47233 -0.16797,1.36786 -0.35518,2.81406 -0.89253,4.08532 m 62.00079,-5.28689 c 2.3e-4,1.38108 0.78799,4.01973 -0.007,5.21047 -0.83796,1.25564 -5.10713,0.55704 -6.48173,0.55704 0,-1.3496 -0.31095,-3.29997 0.51427,-4.47127 1.07085,-1.51997 4.34487,-1.29624 5.97418,-1.29624 z"
       id="path16493" /><path
       style="fill:#000000;stroke-width:1"
       id="path16487"
       d="" /><path
       style="fill:#404040;stroke:none;stroke-width:0.999999"
       d="m 286.71099,224.60424 c -2.43246,-2.7e-4 -7.42352,-1.36986 -9.2487,0.77563 -0.71733,0.84312 -0.57098,2.04369 -0.70605,3.06937 -0.42607,3.23558 -0.18457,6.86816 0.24032,10.09316 0.17663,1.34143 0.0336,3.05029 1.55411,3.66669 1.21933,0.49433 3.01929,0.17833 4.3153,0.17833 1.72064,0 4.94325,0.60798 6.38514,-0.50227 1.03934,-0.79999 0.99032,-2.88448 1.08525,-4.0637 0.27565,-3.4307 0.45995,-6.88737 0.45995,-10.33345 0,-2.25676 0.104,-4.47402 0.20667,-6.7193 0.0323,-0.69896 0.2086,-1.91974 -0.35182,-2.44689 -0.81417,-0.76567 -3.07288,-0.85361 -3.55494,0.30094 -0.65606,1.57212 -0.38523,4.27959 -0.38523,5.98149 m 53.83014,11.29471 c 3.97117,-0.48807 3.94691,5.49524 6.57954,7.51148 1.06361,0.81465 3.29493,-0.1229 3.34347,-1.51302 0.044,-1.26789 -1.38492,-3.00655 -1.99267,-4.07596 -0.67,-1.17896 -1.38613,-2.35987 -1.92251,-3.60468 2.96258,-0.85551 3.839,-3.71668 4.30617,-6.48845 0.36575,-2.16989 0.0863,-4.00771 -2.61941,-3.56911 -1.94173,0.31478 -1.23137,4.27122 -1.99989,5.72823 -1.00548,1.90576 -3.81425,2.04203 -5.6947,2.40682 v -6.24815 c 0,-1.96072 1.05209,-5.89956 0.19273,-7.63513 -0.51981,-1.05039 -3.14138,-1.13465 -3.7907,-0.19099 -0.8226,1.19505 -0.24704,4.24737 -0.24704,5.66331 v 12.7366 c 0,1.4152 -0.48616,3.92768 0.14496,5.21046 0.45274,0.92016 2.92797,0.78679 3.45306,0 0.84902,-1.27221 0.24704,-4.4309 0.24704,-5.93141 m 49.2642,-11.29471 c -2.43269,-2.7e-4 -7.42351,-1.36986 -9.2487,0.77563 -0.71733,0.84312 -0.57098,2.04373 -0.70603,3.06937 -0.42607,3.23558 -0.18457,6.86816 0.2403,10.09316 0.17663,1.34143 0.0336,3.05029 1.55411,3.66669 1.21935,0.49433 3.01929,0.17833 4.3153,0.17833 1.72064,0 4.94325,0.60798 6.38512,-0.50227 1.03936,-0.79999 0.99034,-2.88448 1.08526,-4.0637 0.27564,-3.4307 0.45996,-6.88737 0.45996,-10.33345 0,-2.25676 0.10383,-4.47402 0.20667,-6.7193 0.0321,-0.69896 0.20858,-1.91974 -0.35182,-2.44689 -0.81419,-0.76567 -3.07289,-0.85361 -3.55496,0.30094 -0.65604,1.57212 -0.38521,4.27959 -0.38521,5.98149 m -60.3186,-0.96126 c 0.11386,-3.50116 4.30112,-0.48519 5.30996,-3.36809 1.24674,-3.56365 -4.6926,-2.39918 -6.75183,-2.19991 -0.94227,0.0911 -2.24958,-0.10885 -2.84074,0.82867 -0.71638,1.13641 -0.0204,2.75543 -0.35975,3.99336 -0.38812,1.41612 -1.78553,1.81584 -1.28905,3.60378 0.34821,1.25393 1.57501,1.6241 1.77664,3.15003 0.47173,3.57466 0.0696,7.44899 0.0696,11.0544 0,1.23521 -0.71782,7.32763 1.20614,6.94169 3.05847,-0.61377 2.8792,-3.01883 2.8792,-5.49982 0,-4.17231 -0.60272,-8.85865 0.0515,-12.97672 0.31506,-1.98336 2.93374,-2.05071 2.67781,-4.53055 -0.10718,-1.03886 -1.96529,-0.96404 -2.72924,-0.99684 m 26.68797,-5.62993 c -1.67762,0.51958 -2.77754,6.46253 0.22711,5.6201 0.76779,-0.21527 1.73265,-0.48407 2.15608,-1.22381 1.03094,-1.80083 0.0689,-5.15574 -2.38319,-4.39629 m 118.70146,5.62993 c -1.52597,0.17205 -1.88165,1.17772 -1.64614,2.63882 0.20427,1.2677 1.64855,1.51035 1.8408,2.88857 0.43016,3.09 0.0456,6.49211 0.0456,9.61234 0,0.9937 -0.3821,2.96307 0.75698,3.45978 0.71855,0.31338 2.77802,0.41335 3.18415,-0.41213 0.44939,-0.91414 0.14412,-2.52978 0.14412,-3.52828 0,-2.87463 -0.52147,-6.33225 0.16336,-9.13171 0.42053,-1.71868 3.33073,-2.54206 2.55212,-4.75155 -0.37969,-1.07892 -1.89127,-0.46614 -2.46802,-1.33285 -0.86512,-1.29493 0.32443,-3.52348 -0.73295,-4.79161 -0.62242,-0.74497 -2.81167,-0.32268 -3.31632,0.40626 -0.8363,1.20475 -0.52389,3.55015 -0.52389,4.94236 m -204.98691,-5.39313 c -2.49134,0.65296 -1.68243,4.13003 -1.68243,6.11407 v 12.49629 c 0,1.28832 -0.48976,3.86616 0.24703,4.97015 0.56522,0.84712 2.93013,0.74161 3.80247,0.48063 0.93122,-0.27852 0.0304,-4.57171 0.0361,-5.69109 0.0227,-4.76229 0.44026,-9.39557 0.2307,-14.17848 -0.0841,-1.91523 0.11988,-4.91335 -2.63383,-4.19157 m -43.97753,17.16847 c -1.1196,-2.63599 -1.30307,-5.84403 -1.82906,-8.65126 -0.3765,-2.00938 -0.38058,-6.02886 -1.71278,-7.61363 -0.70433,-0.83782 -3.99294,-1.01781 -4.40872,0.21881 -0.4566,1.35812 0.62564,4.06489 0.87949,5.47231 0.72191,4.00266 1.4512,8.00435 2.12387,12.01566 0.24828,1.48056 0.21336,3.95123 1.13575,5.18258 0.78833,1.05258 5.78601,0.98602 6.84075,0.30161 1.26428,-0.82019 1.23231,-3.66262 1.48934,-5.00356 0.82289,-4.29296 0.98088,-9.4317 2.69073,-13.45754 1.21275,4.31556 1.61391,9.02639 2.30116,13.45754 0.20046,1.29263 0.1035,4.03389 1.35834,4.79953 1.17874,0.71925 6.12414,0.68297 6.92919,-0.50946 0.85432,-1.26573 0.89108,-3.53261 1.18667,-5.01101 0.72142,-3.60782 1.48921,-7.20577 2.21087,-10.8141 0.28983,-1.44985 0.4614,-2.99085 1.12876,-4.32564 0.31505,-0.62983 1.06651,-1.58118 0.69451,-2.32673 -1.12852,-2.26204 -4.79882,0.27601 -5.4008,1.60579 -1.95976,4.33016 -2.82536,10.88909 -3.1993,15.62036 -0.96221,-1.10617 -0.94707,-2.91668 -1.18233,-4.32563 l -1.52047,-8.89158 c -0.2021,-1.21283 -0.18743,-2.99239 -0.92351,-4.01841 -1.04519,-1.45727 -6.16402,-1.21023 -7.16646,0.22808 -0.90899,1.30428 -0.94989,3.47001 -1.2735,4.99188 -0.78159,3.67562 -1.41139,7.41679 -2.3525,11.0544 m 94.42886,-11.56915 c -1.48371,-0.23053 -7.02292,-0.45657 -7.98995,0.83146 -0.48038,0.63984 -0.17037,1.81894 -0.16686,2.56706 0.01,2.1627 2.5e-4,4.32563 2.5e-4,6.48845 v 6.48846 c 0.002,0.88891 -0.12306,1.94004 0.97542,2.12724 2.88617,0.49145 2.73958,-1.3568 2.89122,-3.56913 0.17783,-2.59898 -0.31072,-7.56385 0.94634,-9.82762 0.86129,-1.55129 3.18656,-0.9831 4.07188,-2.29131 0.55127,-0.81459 0.403,-2.63882 -0.7284,-2.81461 m 37.49846,-0.0436 c -1.0718,0.0789 -2.79219,0.80235 -3.31679,1.77304 -0.59598,1.10266 -0.28334,2.85803 -0.28334,4.07216 v 8.41096 c 0,1.0473 -0.28141,2.59275 0.14496,3.56914 0.39556,0.90573 1.67306,0.81514 2.49733,0.74231 1.89537,-0.16703 1.68341,-2.14839 1.68341,-3.59051 2.4e-4,-3.68135 -0.10015,-7.647 0.37872,-11.29471 0.13577,-1.03409 0.59358,-3.80724 -1.10423,-3.68239 m 66.79746,0.0436 c -1.48371,-0.23053 -7.02292,-0.45659 -7.98995,0.83146 -0.48039,0.63984 -0.17037,1.81894 -0.1667,2.56706 0.01,2.1627 2.4e-4,4.32563 2.4e-4,6.48845 v 6.48846 c 0.002,0.88891 -0.12306,1.94004 0.97542,2.12724 2.88617,0.49145 2.73959,-1.3568 2.89097,-3.56913 0.17808,-2.59898 -0.31049,-7.56385 0.94659,-9.82762 0.86126,-1.55127 3.18656,-0.98313 4.07188,-2.29131 0.55127,-0.81461 0.40298,-2.63882 -0.7284,-2.81461 m 46.13986,0 c -1.48274,-0.23053 -7.02195,-0.45659 -7.99042,0.83146 -0.48061,0.63984 -0.17061,1.81894 -0.16586,2.56706 0.01,2.1627 0,4.32563 0,6.48845 v 6.48846 c 0.003,0.88891 -0.12255,1.94004 0.97567,2.12724 2.88617,0.49145 2.73957,-1.3568 2.89097,-3.56913 0.17783,-2.59898 -0.30998,-7.56385 0.94685,-9.82762 0.86032,-1.55127 3.18654,-0.98313 4.07089,-2.29131 0.55272,-0.81458 0.40373,-2.63882 -0.72815,-2.81461 m -169.88695,0.37643 c -1.6024,0.21039 -4.48183,-0.26732 -5.62261,1.1665 -0.68849,0.86545 -0.38521,2.50296 -0.38521,3.53777 0,3.06785 0.2182,6.08977 0.61904,9.1319 0.14028,1.06507 -0.0771,2.8453 0.75988,3.6667 0.63947,0.62721 1.89438,0.41862 2.7064,0.41862 2.53458,2.5e-4 5.70623,0.59479 8.16007,0.18193 2.16979,-0.36505 1.69277,-6.64947 1.69277,-8.35257 0,-2.2325 0.90093,-7.04733 -0.63756,-8.82465 -1.33037,-1.53704 -5.47024,-1.16548 -7.29278,-0.9262 m 101.41214,11.91367 c 2.87558,0 8.14927,0.31144 10.51899,-1.61081 1.99052,-1.61467 0.69236,-8.72153 -1.39741,-9.88471 -2.47068,-1.37519 -7.15919,-0.57655 -9.84253,-0.24236 -1.00523,0.12524 -2.49684,0.28043 -3.21948,1.07972 -0.72669,0.80395 -0.61206,3.12114 -0.62457,4.16971 -0.0403,3.39417 -0.98816,9.25637 1.53465,11.98009 0.86609,0.93481 2.10898,0.75651 3.27066,0.75651 2.86044,0 6.6019,0.64475 9.3679,-0.0764 1.10472,-0.28813 1.98691,-2.14528 1.19917,-3.14305 -0.56065,-0.71013 -2.32191,-0.38523 -3.11736,-0.38523 -2.70833,0 -6.49229,0.38187 -7.69002,-2.64345 m 35.32604,6.00784 c -0.0336,2.84074 -2.8744,2.33199 -5.04658,1.98161 -0.7565,-0.12206 -2.13158,-0.56209 -2.45743,0.45732 -0.50635,1.58414 0.96605,2.40529 2.21712,2.68816 2.19285,0.49551 6.9919,1.25996 8.69837,-0.65583 1.57334,-1.7663 0.67384,-6.55502 0.67384,-8.79691 0,-3.13993 -0.005,-6.24621 -0.21891,-9.37221 -0.0692,-1.012 0.31047,-2.62547 -0.60633,-3.34287 -1.39693,-1.09318 -4.9156,-0.72305 -6.62447,-0.74338 -1.30514,-0.0151 -2.8119,-0.5487 -4.06296,0.003 -1.47217,0.6494 -1.55701,2.45103 -1.68652,3.84278 -0.29126,3.13008 -0.5037,6.22436 -0.49865,9.37221 0.002,1.29457 -0.008,3.02722 1.02829,3.98127 1.96313,1.80667 6.21282,0.59117 8.58423,0.58468 m 50.94638,-6.00784 c 2.87653,0 8.14901,0.31146 10.51851,-1.61081 1.98978,-1.6149 0.69208,-8.72149 -1.39623,-9.88471 -2.47041,-1.37519 -7.15892,-0.57655 -9.84323,-0.24235 -1.00451,0.12523 -2.49684,0.28039 -3.2202,1.07973 -0.72574,0.80396 -0.61039,3.12114 -0.6248,4.16969 -0.0385,3.39395 -0.9877,9.25638 1.53559,11.9801 0.86512,0.93482 2.10996,0.7565 3.27067,0.7565 2.85974,0 6.60139,0.64477 9.3674,-0.0764 1.10543,-0.28811 1.98739,-2.14526 1.19916,-3.14303 -0.55993,-0.71015 -2.32142,-0.38523 -3.11685,-0.38523 -2.70834,0 -6.49326,0.38185 -7.69002,-2.64345 M 251.1447,227.4882 c 2.21809,0.41181 7.14714,-0.15784 8.41095,1.92252 -2.158,0.0926 -6.71987,-0.0334 -8.35616,1.51468 -1.60386,1.51758 -1.49907,6.70282 -1.49474,8.81877 0.002,0.91536 0.10332,1.8634 0.98552,2.36011 2.32142,1.30683 7.65829,0.28431 10.30727,0.28334 1.08956,-4.9e-4 2.37741,0.11436 3.15315,-0.81563 0.92663,-1.1112 0.69185,-2.89097 0.69185,-4.23095 0,-3.51338 0.64885,-8.50926 -1.59784,-11.52444 -1.63557,-2.19517 -5.62548,-1.45246 -8.01469,-1.45246 -0.87786,0 -2.04313,-0.1827 -2.83256,0.28332 -0.96751,0.57102 -1.19989,1.81961 -1.25275,2.84074 m 115.83094,1.20157 3.845,0.48062 c 0.12022,2.79773 0.83797,5.64978 1.30106,8.41096 0.20811,1.24147 0.20186,2.91333 0.75697,4.04976 0.43041,0.88075 2.09698,1.01267 2.91212,0.6116 1.00619,-0.49528 0.55704,-3.01256 0.55704,-3.94041 0,-3.36703 -0.41454,-6.75617 -0.85935,-10.09316 -0.15817,-1.18639 0.0189,-2.81974 -1.31739,-3.3566 -2.43534,-0.97841 -6.27554,-0.49275 -8.87766,-0.4884 -1.04006,0.002 -2.28706,-0.0607 -2.87702,0.98739 -1.10015,1.95447 -0.24704,6.3979 -0.24704,8.62514 v 6.00782 c 9.1e-4,0.64236 -0.15098,1.69517 0.41862,2.15609 0.73079,0.59117 2.63865,0.36214 3.04454,-0.50947 0.91991,-1.97537 0.53733,-5.26551 0.63153,-7.41415 0.0814,-1.8552 0.63179,-3.66789 0.71158,-5.52719 m 78.82269,-1.20157 c 2.21809,0.41183 7.14691,-0.15784 8.41095,1.92252 -2.158,0.0926 -6.71987,-0.0336 -8.35616,1.51468 -1.60385,1.51782 -1.49907,6.70282 -1.49474,8.81877 0.002,0.91536 0.10333,1.8634 0.98552,2.36011 2.32144,1.30683 7.65903,0.28431 10.30727,0.28334 1.08861,-4.9e-4 2.3767,0.11436 3.15292,-0.81563 0.9276,-1.1112 0.6921,-2.89097 0.6921,-4.23095 0,-3.51338 0.64883,-8.50925 -1.59809,-11.52444 -1.63413,-2.19517 -5.62525,-1.45246 -8.01445,-1.45246 -0.87786,0 -2.04314,-0.1827 -2.83257,0.28332 -0.96749,0.57102 -1.19987,1.81961 -1.25275,2.84074 m 61.76047,1.20157 3.84501,0.48062 c 0.12021,2.79773 0.83868,5.64978 1.30008,8.41096 0.20909,1.24147 0.20188,2.91333 0.757,4.04976 0.43015,0.88075 2.09792,1.01267 2.9126,0.6116 1.0069,-0.49528 0.55752,-3.01256 0.55752,-3.94041 0,-3.36703 -0.41334,-6.75617 -0.86032,-10.09316 -0.15616,-1.18639 0.0192,-2.81974 -1.31692,-3.3566 -2.43437,-0.97841 -6.27457,-0.49275 -8.87715,-0.4884 -1.04057,0.002 -2.28778,-0.0607 -2.87656,0.98739 -1.10063,1.95446 -0.24752,6.3979 -0.24752,8.62514 v 6.00782 c 0,0.64236 -0.15148,1.69517 0.41815,2.15609 0.73054,0.59117 2.63863,0.36214 3.04475,-0.50947 0.92042,-1.97537 0.53832,-5.26526 0.63203,-7.41415 0.0816,-1.8552 0.63203,-3.66789 0.71133,-5.52719 m -100.45091,-1.12926 c 1.95519,-0.17276 3.42278,2.28024 2.16066,3.91834 -0.86249,1.11913 -3.02987,1.18617 -4.32347,1.27461 -2.4649,0.16918 -4.47944,-1.52598 -2.13087,-3.76943 1.1004,-1.0511 2.8381,-1.29489 4.29368,-1.42352 m 86.27241,0 c 1.95615,-0.17276 3.42205,2.28024 2.16042,3.91834 -0.86273,1.11938 -3.03034,1.18617 -4.32324,1.27461 -2.46561,0.16918 -4.47944,-1.52598 -2.13158,-3.76943 1.10065,-1.05113 2.83809,-1.29489 4.2944,-1.42352 m -189.36675,10.74125 c -1.06721,-0.20114 -2.88469,-0.15482 -3.72147,-0.89924 -1.32678,-1.17994 -1.93981,-7.10438 -0.74352,-8.41808 0.89227,-0.97988 4.57628,-1.80389 5.28134,-0.24031 0.59286,1.31513 0.2497,4.05878 0.0762,5.47232 -0.16799,1.36785 -0.35519,2.81405 -0.89253,4.08531 m -18.26374,-0.48031 c -1.0009,0.12641 -3.2947,0.88268 -4.15067,0.23263 -0.55706,-0.4227 -0.6652,-1.51805 -0.78535,-2.15513 -0.3129,-1.65864 -1.15712,-5.88839 0.11486,-7.27132 1.00234,-1.08962 4.58277,-0.46301 5.216,0.80902 0.47896,0.96226 0.12273,2.75716 0.0764,3.81886 -0.0669,1.52502 -0.3511,3.04477 -0.47126,4.56594 m 103.09433,0 c -1.0009,0.12641 -3.29468,0.88268 -4.15069,0.23263 -0.55704,-0.42295 -0.66518,-1.51805 -0.78533,-2.15513 -0.3129,-1.65864 -1.15712,-5.88839 0.11486,-7.27132 1.00234,-1.0896 4.58277,-0.46301 5.216,0.80902 0.47895,0.96226 0.12273,2.75716 0.0764,3.81886 -0.0669,1.52502 -0.3511,3.04477 -0.47126,4.56594 m 44.32095,-9.22701 c 0.53422,-0.26312 1.26814,-0.0965 1.81918,0.0151 3.2053,0.64605 2.40313,3.65994 2.40313,6.32862 0,1.02205 0.32249,2.63191 -0.75651,3.20746 -0.48832,0.26049 -1.10328,0.33547 -1.64662,0.37561 -4.16175,0.30663 -3.47349,-3.12023 -3.08658,-6.22652 0.11821,-0.94948 0.29342,-3.22004 1.2674,-3.6998 m -172.88848,4.42075 c 2.4e-4,1.38108 0.78799,4.01971 -0.007,5.21047 -0.83796,1.25562 -5.10713,0.55703 -6.48172,0.55703 0,-1.34959 -0.31096,-3.29998 0.51427,-4.47126 1.07084,-1.51997 4.34486,-1.29624 5.97418,-1.29624 m 194.65365,0 c 0,1.38108 0.78822,4.01971 -0.007,5.21047 -0.83628,1.25562 -5.10665,0.55703 -6.48125,0.55703 0,-1.34959 -0.31095,-3.29998 0.51427,-4.47126 1.07085,-1.51997 4.34487,-1.29624 5.97418,-1.29624 z"
       id="path16507" /><path
       style="fill:#3f3f3f;stroke:none;stroke-width:0.999999"
       d="m 173.51079,218.06606 c -1.67762,0.51959 -2.77754,6.46252 0.22709,5.6201 0.76781,-0.21527 1.73266,-0.48409 2.1561,-1.22381 1.03094,-1.80085 0.0689,-5.15576 -2.38319,-4.39629 m -42.78894,10.67651 c 0,-1.56605 -0.37165,-5.49922 1.02818,-6.50328 2.30604,-1.6541 7.47486,0.48717 8.73174,-2.62862 0.7331,-1.8173 -1.70054,-1.44188 -2.79085,-1.44188 h -7.93033 c -1.03508,0 -2.60516,-0.28931 -3.56538,0.14496 -0.973,0.44011 -0.27963,4.09675 -0.27963,5.14188 v 14.41879 c 0,1.20996 -0.56033,4.06778 0.97534,4.48952 6.03959,1.65864 2.12993,-6.75182 4.45655,-9.12083 1.17547,-1.19701 3.51535,-0.61905 4.84763,-1.58247 0.75634,-0.54696 1.55717,-2.45548 0.25867,-2.84173 -1.66072,-0.49399 -4.00061,-0.0764 -5.73192,-0.0764 m 19.21087,-4.84038 c -1.48371,-0.23054 -7.02292,-0.45659 -7.98996,0.83146 -0.48033,0.63983 -0.17026,1.81892 -0.1667,2.56705 0.01,2.1627 2e-4,4.32563 2e-4,6.48845 v 6.48847 c 0.002,0.88891 -0.12306,1.94004 0.97542,2.12724 2.88617,0.49144 2.73957,-1.35681 2.8912,-3.56913 0.17785,-2.59899 -0.31072,-7.56386 0.94636,-9.82763 0.86128,-1.55127 3.18656,-0.98309 4.07186,-2.29131 0.55129,-0.81459 0.40302,-2.63881 -0.72838,-2.8146 m 25.24248,-0.0436 c -1.07179,0.0788 -2.7922,0.80235 -3.31678,1.77304 -0.59598,1.10268 -0.28334,2.85803 -0.28334,4.07216 v 8.41097 c 0,1.04728 -0.28141,2.59273 0.14496,3.56912 0.39554,0.90575 1.67304,0.81515 2.49733,0.74233 1.89534,-0.16703 1.68339,-2.1484 1.68339,-3.59051 2.4e-4,-3.68136 -0.10015,-7.64702 0.37873,-11.29473 0.13576,-1.03409 0.59359,-3.80723 -1.10423,-3.68238 m 30.99076,0.0436 c -1.48369,-0.23054 -7.0229,-0.45657 -7.98993,0.83146 -0.4804,0.63983 -0.17039,1.81892 -0.16686,2.56705 0.01,2.1627 2.3e-4,4.32563 2.3e-4,6.48845 v 6.48847 c 0.002,0.88891 -0.12306,1.94004 0.97544,2.12724 2.88615,0.49144 2.73957,-1.35681 2.8912,-3.56913 0.17783,-2.59899 -0.31072,-7.56386 0.94634,-9.82763 0.8613,-1.55128 3.18656,-0.98309 4.07188,-2.29131 0.55129,-0.81459 0.403,-2.63881 -0.72838,-2.8146 m -48.52905,12.29009 c 2.87557,0 8.14923,0.31144 10.51898,-1.61081 1.9905,-1.61467 0.6921,-8.72152 -1.39744,-9.88471 -2.47064,-1.37519 -7.15915,-0.57655 -9.84249,-0.24235 -1.00523,0.12523 -2.49686,0.28039 -3.21948,1.07972 -0.72671,0.80397 -0.61208,3.12115 -0.62458,4.1697 -0.0403,3.39419 -0.98817,9.25638 1.53465,11.9801 0.86609,0.93481 2.10899,0.7565 3.27066,0.7565 2.86045,0 6.60189,0.64476 9.36764,-0.0764 1.10497,-0.28814 1.98714,-2.14527 1.1994,-3.14306 -0.56065,-0.71012 -2.3219,-0.38522 -3.11733,-0.38522 -2.70834,0 -6.4923,0.38186 -7.69001,-2.64345 m 26.19411,0 c 2.87559,0 8.14926,0.31146 10.51898,-1.61081 1.99052,-1.61467 0.69209,-8.72152 -1.39743,-9.88471 -2.47065,-1.37519 -7.15915,-0.57655 -9.84249,-0.24235 -1.00522,0.12523 -2.49685,0.28039 -3.21946,1.07973 -0.72672,0.80396 -0.61209,3.12114 -0.62458,4.16969 -0.0403,3.39419 -0.98817,9.25638 1.53464,11.98009 0.86609,0.93481 2.10899,0.75651 3.27066,0.75651 2.86043,0 6.60186,0.64475 9.36763,-0.0764 1.10496,-0.28813 1.98716,-2.14528 1.1994,-3.14305 -0.56065,-0.71013 -2.32191,-0.38523 -3.11734,-0.38523 -2.70834,0 -6.4923,0.38187 -7.69001,-2.64344 m -21.38787,-8.57896 c 1.95519,-0.17276 3.42278,2.28021 2.16066,3.91832 -0.86249,1.11938 -3.02986,1.1862 -4.32346,1.27463 -2.46491,0.16919 -4.47945,-1.52598 -2.13086,-3.76943 1.10038,-1.05113 2.8381,-1.29491 4.29366,-1.42352 m 26.19412,0 c 1.95519,-0.17276 3.42278,2.28024 2.16066,3.91832 -0.86248,1.11938 -3.02988,1.1862 -4.32348,1.27463 -2.46488,0.16919 -4.47942,-1.52598 -2.13083,-3.76943 1.10039,-1.0511 2.83808,-1.29491 4.29365,-1.42352 z"
       id="path16521" /><g
       id="g21"
       style="display:inline;stroke-width:2.96199"
       transform="matrix(0.95072287,0,0,0.94572352,-184.63297,117.49205)"><path
         style="font-variation-settings:normal;opacity:1;fill:none;fill-opacity:1;stroke:url(#linearGradient16);stroke-width:2.96199;stroke-linecap:butt;stroke-linejoin:miter;stroke-miterlimit:4;stroke-dasharray:none;stroke-dashoffset:0;stop-color:#000000;stop-opacity:1"
         d="M 316.556,150.51048 301.78996,121.5351 300.2701,118.55267"
         id="path2-8-1"
         sodipodi:nodetypes="ccc" /><path
         style="font-variation-settings:normal;opacity:1;fill:none;fill-opacity:1;stroke:url(#linearGradient12-1-9);stroke-width:4.44298;stroke-linecap:butt;stroke-linejoin:miter;stroke-miterlimit:4;stroke-dasharray:none;stroke-dashoffset:0;stop-color:#000000;stop-opacity:1"
         d="m 301.02497,120.03044 13.5963,-35.030237"
         id="path3-7-9"
         sodipodi:nodetypes="cc" /><path
         style="font-variation-settings:normal;opacity:1;fill:none;fill-opacity:1;stroke:url(#linearGradient10-0-8);stroke-width:5.92399;stroke-linecap:butt;stroke-linejoin:miter;stroke-miterlimit:4;stroke-dasharray:none;stroke-dashoffset:0;stop-color:#000000;stop-opacity:1"
         d="M 313.80587,86.88123 350.92209,69.388088"
         id="path4-9-4"
         sodipodi:nodetypes="cc" /><path
         style="font-variation-settings:normal;opacity:1;fill:none;fill-opacity:1;stroke:url(#linearGradient8-6-3);stroke-width:7.40497;stroke-linecap:butt;stroke-linejoin:miter;stroke-miterlimit:4;stroke-dasharray:none;stroke-dashoffset:0;stop-color:#000000;stop-opacity:1"
         d="m 348.57806,70.248629 38.31281,11.716917"
         id="path5-2-7"
         sodipodi:nodetypes="cc" /></g></g></svg>
